<?xml version="1.0" standalone="no"?>
<!DOCTYPE svg PUBLIC "-//W3C//DTD SVG 1.1//EN" "http://www.w3.org/Graphics/SVG/1.1/DTD/svg11.dtd" >
<svg xmlns="http://www.w3.org/2000/svg" xmlns:xlink="http://www.w3.org/1999/xlink" version="1.1">
<metadata>
Created by FontForge 20201107 at Tue Nov 16 08:42:56 2021
 By Susanna Ånäs

</metadata>
<defs>
<font id="WikiFont-Glyphs" horiz-adv-x="512" >
  <font-face 
    font-family="wikiglyph"
    font-weight="400"
    font-stretch="normal"
    units-per-em="512"
    panose-1="2 0 5 9 0 0 0 0 0 0"
    ascent="480"
    descent="-32"
    bbox="0 21 512 512"
    underline-thickness="0"
    underline-position="0"
    unicode-range="U+0504-E504"
  />
<missing-glyph 
 />
    <glyph glyph-name=".notdef" 
 />
    <glyph glyph-name=".notdef" 
 />
    <glyph glyph-name=".null" horiz-adv-x="0" 
 />
    <glyph glyph-name="nonmarkingreturn" 
 />
    <glyph glyph-name="move" unicode="&#xe013;" 
d="M427 277l-86 64v-42h-64v64h43l-64 85l-64 -85h43v-64h-64v42l-86 -64l86 -64v43h64v-64h-43l64 -85l64 85h-43v64h64v-43z" />
    <glyph glyph-name="cog" unicode="&#xe014;" 
d="M427 203v62l-39 6q-3 11 -13 30l24 32l-45 45l-32 -24q-15 10 -30 13l-4 38h-62l-6 -38q-13 -2 -30 -13l-32 24l-45 -45l21 -32q-3 -6 -12 -30l-37 -4v-62l39 -7q3 -15 13 -29l-22 -32l45 -45l32 21q4 -2 14 -6t16 -7l6 -38h64l7 38q10 2 30 13l32 -23l44 44l-23 32
q10 19 13 30zM256 171q-27 0 -45.5 18t-18.5 46q0 27 18.5 45.5t45.5 18.5t45.5 -18.5t18.5 -45.5q0 -28 -18.5 -46t-45.5 -18z" />
    <glyph glyph-name="ellipses" unicode="&#xe015;" 
d="M171 235q0 -17 -13 -30t-30 -13t-30 13t-13 30q0 15 13 30q14 12 30 12t30 -12q13 -15 13 -30zM299 235q0 -17 -13 -30t-30 -13t-30 13t-13 30q0 15 13 30q14 12 30 12t30 -12q13 -15 13 -30zM427 235q0 -17 -13 -30t-30 -13t-30 13t-13 30q0 15 13 30q14 12 30 12
t30 -12q13 -15 13 -30z" />
    <glyph glyph-name="message" unicode="&#xe016;" 
d="M448 320q0 27 -18.5 45.5t-45.5 18.5h-320v-64l192 -85zM64 277v-128q0 -27 18.5 -45.5t45.5 -18.5h320v192l-192 -85z" />
    <glyph glyph-name="key" unicode="&#xe017;" 
d="M309 427q-48 0 -82.5 -35t-34.5 -83q0 -27 15 -59l-122 -122v-43h86v43h42v43h43l26 25q16 -4 27 -4q48 0 83 34.5t35 82.5t-35 83t-83 35zM341 320q-13 0 -22.5 9.5t-9.5 22.5t9.5 22.5t22.5 9.5t22.5 -9.5t9.5 -22.5t-9.5 -22.5t-22.5 -9.5z" />
    <glyph glyph-name="lock" unicode="&#xe018;" 
d="M320 341q0 3 -0.5 7t-3 15t-7.5 19.5t-16 15.5t-26 7q-24 0 -37.5 -16t-15.5 -32l-1 -16v-21h107v21zM363 341v-21h42v-213h-213q-27 0 -45.5 18t-18.5 46v149h43v21q0 4 0.5 11.5t6 26t14.5 32.5t28.5 25.5t46.5 11.5t46.5 -11t28.5 -27t14.5 -31.5t5.5 -26.5z" />
    <glyph glyph-name="unlock" unicode="&#xe019;" 
d="M256 320v43q0 4 -0.5 11.5t-6 25.5t-14.5 32t-28.5 25.5t-46.5 11.5t-46.5 -11t-28.5 -26.5t-14.5 -31t-6.5 -26.5v-11h43q0 3 0.5 7t3 15t7.5 19.5t16 15.5t26 7q24 0 37 -16t15 -32l1 -16v-43h-64v-149q0 -28 18.5 -46t45.5 -18h214v213h-171z" />
    <glyph glyph-name="browser" unicode="&#xe020;" 
d="M64 384v-235q0 -27 18.5 -45.5t45.5 -18.5h320v299h-384zM117 363q13 0 22.5 -9.5t9.5 -22.5t-9.5 -22.5t-22.5 -9.5t-22.5 9.5t-9.5 22.5t9.5 22.5t22.5 9.5zM427 107h-299q-17 0 -30 12.5t-13 29.5v128h342v-170z" />
    <glyph glyph-name="keyboard" unicode="&#xe022;" 
d="M64 363v-192q0 -28 18.5 -46t45.5 -18h320v256h-384zM235 320h42v-43h-42v43zM235 256h42v-43h-42v43zM171 320h42v-43h-42v43zM171 256h42v-43h-42v43zM149 149h-21q-21 0 -21 22v21h42v-43zM149 213h-42v43h42v-43zM149 277h-42v43h42v-43zM341 149h-170v43h170v-43z
M341 213h-42v43h42v-43zM341 277h-42v43h42v-43zM405 149h-42v43h42v-43zM405 213h-42v43h42v-43zM405 277h-42v43h42v-43z" />
    <glyph glyph-name="ribbon-prize" unicode="&#xe023;" 
d="M299 331q0 -23 -15.5 -38.5t-38.5 -15.5q-22 0 -37.5 16t-15.5 38t15.5 37.5t37.5 15.5t38 -15.5t16 -37.5zM348 326l15 15l-17 17l8 17l-23 11l2 19l-26 5l-2 19l-26 -4l-8 17l-24 -11l-12 17l-17 -17l-20 8l-10 -23l-19 4l-5 -25l-19 -5l4 -25l-19 -9l11 -23l-13 -13
l17 -17l-8 -17l23 -11l-2 -19l25 -4l3 -19l25 4l9 -17l23 10l13 -17l17 17l17 -8l11 23l19 -2l4 26l19 2l-4 26l17 8zM245 256q-30 0 -52 22t-22 53q0 30 22 52t52 22q31 0 53 -22t22 -52q0 -31 -22 -53t-53 -22zM256 192l-15 15l-23 -13l-9 15l-17 -6v-182l53 64l54 -64
v182l-22 10z" />
    <glyph glyph-name="play" unicode="&#xe024;" 
d="M256 405q-71 0 -121 -50t-50 -120q0 -71 50.5 -121t120.5 -50t120.5 50t50.5 121q0 70 -50 120t-121 50zM213 149v171l128 -85z" />
    <glyph glyph-name="stop" unicode="&#xe025;" 
d="M256 384q62 0 105.5 -43.5t43.5 -105.5q0 -63 -43.5 -106.5t-105.5 -43.5t-105.5 43.5t-43.5 106.5q0 62 43.5 105.5t105.5 43.5zM256 405q-71 0 -121 -50t-50 -120q0 -71 50.5 -121t120.5 -50t120.5 50t50.5 121q0 70 -50 120t-121 50zM192 299h128v-128h-128v128z" />
    <glyph glyph-name="beta" unicode="&#xe026;" 
d="M256 427q-70 0 -120.5 -50.5t-50.5 -120.5t50.5 -120.5t120.5 -50.5t120.5 50.5t50.5 120.5t-50.5 120.5t-120.5 50.5zM341 171l-64 42l-21 -85l-21 85l-64 -42l42 64l-85 21l85 21l-42 64l64 -42l21 85l21 -85l64 42l-42 -64l85 -21l-85 -21z" />
    <glyph glyph-name="beta-launch" unicode="&#xe027;" 
d="M326 198q14 66 -7.5 147.5t-62.5 81.5t-64 -79.5t-9 -144.5l-34 -75h58l6 -21h86q2 3 3 9.5t3 11.5h58zM256 299q-13 0 -22.5 9.5t-9.5 22.5t9.5 22.5t22.5 9.5t22.5 -9.5t9.5 -22.5t-9.5 -22.5t-22.5 -9.5zM299 85q0 -10 -10.5 -20.5t-21.5 -16.5l-11 -5q-43 19 -43 42
h86z" />
    <glyph glyph-name="upload" unicode="&#xe028;" 
d="M213 235q0 -28 18.5 -46t45.5 -18v149h64l-96 107l-96 -107h64v-85zM363 235v-107h-214q-9 0 -15 6t-6 15v86h-43v-86q0 -29 18 -46.5t46 -17.5h256v150h-42z" />
    <glyph glyph-name="download" unicode="&#xe029;" 
d="M341 277h-64v150q-27 0 -45.5 -18.5t-18.5 -45.5v-86h-64l96 -106zM363 235v-107h-214q-21 0 -21 21v86h-43v-86q0 -29 18 -46.5t46 -17.5h256v150h-42z" />
    <glyph glyph-name="new-window" unicode="&#xe030;" 
d="M256 363l53 -54l-74 -74q-19 -19 -19 -43t19 -43l117 118l53 -54v150h-149zM363 107h-192q-22 0 -22 21v192h64l-42 43h-64v-235q0 -27 18 -45.5t46 -18.5h234v64l-42 43v-64z" />
    <glyph glyph-name="log-out" unicode="&#xe031;" 
d="M320 213v-64l107 96l-107 96v-64h-149q0 -27 18 -45.5t46 -18.5h85zM299 405h-214v-320h214v43h-171v235h171v42z" />
    <glyph glyph-name="map" unicode="&#xe032;" 
d="M320 384l-128 43l-128 -43v-320l128 43l128 -43l128 43v320zM186 126l-101 -32v275l107 36v-275zM427 122l-107 -37v276l6 2l101 34v-275z" />
    <glyph glyph-name="bell" unicode="&#xe033;" 
d="M373 213v107q0 48 -33 77.5t-84 29.5t-84 -29.5t-33 -77.5v-107q0 -26 -1.5 -36.5t-11 -19t-30.5 -8.5v-21h320v21q-30 0 -36.5 13.5t-6.5 50.5zM256 85h-64q0 -16 20.5 -29t43.5 -13t43.5 13t20.5 29h-64z" />
    <glyph glyph-name="bell-on" unicode="&#xe034;" 
d="M380 198l36 101q16 44 -5.5 83.5t-69.5 56.5q-48 18 -89.5 1.5t-57.5 -60.5l-36 -101q-6 -16 -8.5 -22t-8 -14.5t-10.5 -10.5t-14 -1.5t-21 4.5l-6 -22l300 -108l7 19q-28 10 -29.5 27.5t12.5 46.5zM256 90l-60 21q-5 -14 9.5 -34t35.5 -28t45.5 -2.5t29.5 21.5z" />
    <glyph glyph-name="vision-simulator" unicode="&#xe035;" 
d="M256 299h-256v-171h49q10 -21 36 -21h86q24 0 41.5 11.5t22.5 30.5h42q5 -19 22.5 -30.5t41.5 -11.5h86q30 0 36 21h49v171h-256zM213 171q0 -43 -42 -43h-86q-9 0 -15 6t-6 15v64q0 10 6 16t15 6h107q21 0 21 -22v-42zM448 149q0 -9 -6 -15t-15 -6h-86q-42 0 -42 43v42
q0 22 21 22h107q9 0 15 -6t6 -16v-64z" />
    <glyph glyph-name="full-moon" unicode="&#xe038;" 
d="M256 405q-71 0 -121 -50t-50 -120q0 -71 50.5 -121t120.5 -50t120.5 50t50.5 121q0 70 -50 120t-121 50z" />
    <glyph glyph-name="moon" unicode="&#xe039;" 
d="M407 139q-53 -22 -105.5 -0.5t-75.5 74.5q-22 53 0 106t75 76l15 6q-51 13 -103 -8q-64 -28 -91 -93t0 -129q27 -66 92.5 -92.5t131.5 0.5q55 23 81 72q-2 -2 -20 -12z" />
    <glyph glyph-name="large-text" unicode="&#xe040;" 
d="M444 85h-173v17q1 0 28 5q17 3 17 8v4q0 5 -2 7l-28 66h-109q-5 -15 -8 -21q-1 -4 -4.5 -11t-4.5 -11q-4 -16 -4 -17v-8q0 -6 10 -13q10 -6 37 -6v-20h-130v17q2 0 7.5 1.5t9.5 1.5q3 1 7.5 2t7.5 2q8 5 14 13q8 10 11 19q6 14 16 39.5t18.5 46.5t16.5 40q9 22 28.5 68
t29.5 70h45q17 -39 39.5 -96t28.5 -72q41 -100 43 -103l6 -12q2 -5 13 -11q8 -4 15 -6q6 -3 15 -3v-17zM277 213l-44 113l-45 -113h89z" />
    <glyph glyph-name="smaller-text" unicode="&#xe041;" 
d="M375 85h-115v11q2 0 8.5 1t10.5 1q11 3 11 7v2q0 2 -2 4l-17 43h-73q-1 -2 -2 -4.5l-2 -5t-2 -5.5q-4 -14 -4 -15q-3 -10 -5 -13v-4q0 -5 7 -9q8 -4 23 -4v-9h-85v11q6 0 11 2q2 0 10 4q9 6 11 9q4 8 6 13q5 11 17 39.5t18 43.5q11 31 38 92h30q10 -25 25 -63t20 -50
q5 -15 14.5 -38.5t12.5 -30.5q1 -1 2 -4t3 -4q4 -4 8 -7q1 -1 5 -2t6 -2q4 -2 10 -2v-11zM265 171l-30 76l-30 -76h60z" />
    <glyph glyph-name="close-input" unicode="&#xe050;" 
d="M256 405q-71 0 -121 -50t-50 -120q0 -71 50.5 -121t120.5 -50t120.5 50t50.5 121q0 70 -50 120t-121 50zM341 171l-21 -22l-64 64l-64 -64l-21 22l64 64l-64 64l21 21l64 -64l64 64l21 -21l-64 -64z" />
    <glyph glyph-name="cross" unicode="&#xe051;" 
d="M393 339q13 13 13 30t-13 30l-137 -139l-119 120l-30 -30l119 -120l-107 -106q-13 -13 -13 -30t13 -30l137 137l119 -120l30 30l-119 119z" />
    <glyph glyph-name="check" unicode="&#xe052;" 
d="M395 384l-214 -213l-106 106l-32 -32l138 -138l278 277q-13 13 -32 13t-32 -13z" />
    <glyph glyph-name="caret-down" unicode="&#xe053;" 
d="M256 85l190 190q-13 13 -30 13t-30 -13l-130 -130l-130 128q-13 13 -30 13t-30 -13z" />
    <glyph glyph-name="caret-up" unicode="&#xe054;" 
d="M256 299l-192 -192q13 -13 32 -13t32 13l128 128l128 -128q13 -13 32 -13t32 13z" />
    <glyph glyph-name="caret-left" unicode="&#xe055;" 
d="M149 233l190 -190q13 13 13 29.5t-13 29.5l-130 131l128 130q13 13 13 29.5t-13 29.5z" />
    <glyph glyph-name="arrow-left" unicode="&#xe057;" 
d="M171 256h213q27 0 45.5 -18.5t18.5 -45.5h-277v-64l-107 96l107 96v-64z" />
    <glyph glyph-name="triangle-down" unicode="&#xe061;" 
d="M256 128l171 213h-342z" />
    <glyph glyph-name="plus" unicode="&#xe065;" 
d="M405 256h-128v149h-42v-149h-150v-21q0 -22 22 -22h128v-149h42v149h150v22q0 9 -6 15t-16 6z" />
    <glyph glyph-name="minus" unicode="&#xe066;" 
d="M427 213v22q0 9 -6 15t-16 6h-320v-21q0 -22 22 -22h320z" />
    <glyph glyph-name="article" unicode="&#xe100;" 
d="M256 299h85v106h-85v-106zM149 256h192v21h-192v-21zM149 213h192v22h-192v-22zM149 171h192v21h-192v-21zM235 363h-86v-22h86v22zM235 320h-86v-21h86v21zM235 405h-86v-21h86v21zM107 448h277v-341h-213q-28 0 -46 18t-18 46v277z" />
    <glyph glyph-name="article-check" unicode="&#xe101;" 
d="M448 277l-128 -149l-85 85l-22 -21l107 -107l149 171zM363 213v235h-278v-277q0 -28 18.5 -46t45.5 -18h107l-64 64h-64v21h55l22 21h-77v22h192v-22h-43l22 -21h42zM128 405h85v-21h-85v21zM128 363h85v-22h-85v22zM128 320h85v-21h-85v21zM320 256h-192v21h192v-21z
M235 299v106h85v-106h-85z" />
    <glyph glyph-name="article-search" unicode="&#xe102;" 
d="M407 117q20 23 20 54q0 35 -25.5 60t-60.5 25t-60 -25t-25 -60t25 -60.5t60 -25.5q25 0 39 9l57 -58l24 24zM341 124q-19 0 -33 14t-14 35q0 19 14 33t33 14q20 0 34.5 -14t14.5 -33q-2 -21 -16 -35t-33 -14zM252 235q9 12 21 21h-124v21h192q26 0 43 -12v183h-277v-277
q0 -28 18 -46t46 -18h81q-22 29 -22 64h-81v21h84q1 3 3 10.5t3 10.5h-90v22h103zM256 405h85v-106h-85v106zM149 405h86v-21h-86v21zM149 363h86v-22h-86v22zM149 320h86v-21h-86v21z" />
    <glyph glyph-name="stripe-menu" unicode="&#xe110;" 
d="M427 107h-342v42h342v-42zM427 192h-342v43h342v-43zM427 277h-342v43h342v-43z" />
    <glyph glyph-name="stripe-toc" unicode="&#xe111;" 
d="M363 235h-278v64h278v-64zM256 107h-171v64h171v-64zM85 363v64h342v-64h-342z" />
    <glyph glyph-name="stripe-flow" unicode="&#xe112;" 
d="M85 320h256v-43h-256v43zM85 256h171v-43h-171v43zM85 405h342v-64h-342v64zM427 107h-342v64h342v-64z" />
    <glyph glyph-name="stripe-summary" unicode="&#xe113;" 
d="M427 277h-342v43h342v-43zM85 256h171v-43h-171v43z" />
    <glyph glyph-name="view-compact" unicode="&#xe114;" 
d="M171 384q0 -18 -12.5 -30.5t-30.5 -12.5t-30.5 12.5t-12.5 30.5t12.5 30.5t30.5 12.5t30.5 -12.5t12.5 -30.5zM299 384q0 -18 -12.5 -30.5t-30.5 -12.5t-30.5 12.5t-12.5 30.5t12.5 30.5t30.5 12.5t30.5 -12.5t12.5 -30.5zM427 384q0 -18 -12.5 -30.5t-30.5 -12.5
t-30.5 12.5t-12.5 30.5t12.5 30.5t30.5 12.5t30.5 -12.5t12.5 -30.5zM171 256q0 -18 -12.5 -30.5t-30.5 -12.5t-30.5 12.5t-12.5 30.5t12.5 30.5t30.5 12.5t30.5 -12.5t12.5 -30.5zM299 256q0 -18 -12.5 -30.5t-30.5 -12.5t-30.5 12.5t-12.5 30.5t12.5 30.5t30.5 12.5
t30.5 -12.5t12.5 -30.5zM427 256q0 -18 -12.5 -30.5t-30.5 -12.5t-30.5 12.5t-12.5 30.5t12.5 30.5t30.5 12.5t30.5 -12.5t12.5 -30.5zM171 128q0 -18 -12.5 -30.5t-30.5 -12.5t-30.5 12.5t-12.5 30.5t12.5 30.5t30.5 12.5t30.5 -12.5t12.5 -30.5zM299 128
q0 -18 -12.5 -30.5t-30.5 -12.5t-30.5 12.5t-12.5 30.5t12.5 30.5t30.5 12.5t30.5 -12.5t12.5 -30.5zM427 128q0 -18 -12.5 -30.5t-30.5 -12.5t-30.5 12.5t-12.5 30.5t12.5 30.5t30.5 12.5t30.5 -12.5t12.5 -30.5z" />
    <glyph glyph-name="view-details" unicode="&#xe115;" 
d="M171 331q0 -23 -15.5 -38.5t-38.5 -15.5q-22 0 -37.5 16t-15.5 38t15.5 37.5t37.5 15.5t38 -15.5t16 -37.5zM213 384h256v-21h-256v21zM213 341h192v-21h-192v21zM213 299h86v-22h-86v22zM171 160q0 -22 -16 -37.5t-38 -15.5t-37.5 15.5t-15.5 37.5t15.5 37.5t37.5 15.5
t38 -15.5t16 -37.5zM213 213h256v-21h-256v21zM213 171h192v-22h-192v22zM213 128h86v-21h-86v21z" />
    <glyph glyph-name="flag" unicode="&#xe134;" 
d="M277 352v32q-23 23 -69 21.5t-59 -21.5v21h-21v-320h21v150q12 12 47 14.5t60 -4.5v-32q20 -23 57.5 -21.5t49.5 21.5v150q-11 -11 -38 -14.5t-48 3.5z" />
    <glyph glyph-name="flag-undo" unicode="&#xe135;" 
d="M171 384v21h-22v-149l137 137q-26 15 -65 12t-50 -21zM326 348l79 79l-21 21l-341 -341l21 -22l85 86v-86h22v107l57 58q12 0 49 -5v-32q20 -23 57.5 -21.5t49.5 21.5v150q-15 -15 -58 -15z" />
    <glyph glyph-name="user-avatar" unicode="&#xe160;" 
d="M254.28 174.405q42.2012 0 78.0479 -11.4971q35.8457 -11.4971 57.3994 -28.8154q21.5527 -17.3184 33.4844 -35.8691q11.9326 -18.5498 11.9326 -34.3467v-20.0967h-361.729v20.0967q0 15.7969 11.9316 34.3467q11.9326 18.5508 33.4854 35.8691
q21.5527 17.3184 57.3994 28.8154q35.8457 11.4971 78.0479 11.4971zM153.8 305.029q0 41.6201 29.4297 71.0498q29.4307 29.4307 71.0508 29.4307q41.6201 0 71.0498 -29.4307q29.4297 -29.4297 29.4297 -71.0498t-29.4297 -71.0498q-29.4297 -29.4307 -71.0498 -29.4307
q-41.6201 0 -71.0508 29.4307q-29.4297 29.4297 -29.4297 71.0498z" />
    <glyph glyph-name="user-active" unicode="&#xe161;" 
d="M341 405h-256v-256q0 -27 18.5 -45.5t45.5 -18.5h256v256q0 28 -18 46t-46 18zM299 320q11 0 18 -8t7 -18q0 -9 -8 -17t-17 -8q-10 0 -18 8t-8 17q0 10 7.5 18t18.5 8zM192 320q11 0 18.5 -8t7.5 -18t-7.5 -18.5t-18.5 -8.5t-18.5 7.5t-7.5 17.5t7.5 19t18.5 9zM341 205
q0 -5 -6 -11q-19 -16 -56 -28q-26 -7 -66 0q-24 6 -57 32q-5 8 -5 9q0 3 5 8q3 5 8 5q6 0 9 -5q17 -17 45 -23t55 0q29 6 45 21q5 5 8 5q1 0 11 -5q4 -2 4 -8z" />
    <glyph glyph-name="user-inactive" unicode="&#xe162;" 
d="M341 405h-256v-256q0 -27 18.5 -45.5t45.5 -18.5h256v256q0 28 -18 46t-46 18zM143 290q-15 12 -15 30q19 -19 53 -19q35 0 54 19q0 -16 -15 -30q-18 -13 -39 -13q-20 0 -38 13zM322 198q0 -5 -6 -8q-32 -19 -75 -19q-41 0 -70 21q-4 2 -7 9q-2 3 2 10q0 1 9 7q3 2 11 -3
q29 -17 59 -17q35 0 60 15q2 2 11 2q5 0 8 -6q-1 -2 -1 -5.5t-1 -5.5zM348 290q-18 -13 -39 -13q-20 0 -38 13q-15 12 -15 30q19 -19 53 -19q35 0 54 19q0 -16 -15 -30z" />
    <glyph glyph-name="edit-lock" unicode="&#xe222;" 
d="M448 427v21q0 3 -0.5 7t-4 15t-9.5 19.5t-19 15.5t-31 7q-28 0 -44 -16t-18 -32l-2 -16v-21h-21v-128h170v128h-21zM416 427h-64v21q0 4 1 9t9 14t22 9t22 -8t9 -16l1 -8v-21zM277 307l-145 -147q-9 9 -21 17q107 107 166 169v38l-192 -192l-21 -107l107 22l170 170h-64
v30z" />
    <glyph glyph-name="quotes" unicode="&#xe223;" 
d="M425 326q11 5 17 13q6 11 6 24v21q-47 -7 -70 -17q-27 -15 -47 -38q-10 -11 -20.5 -28.5t-22 -54t-11.5 -75.5v-86h128q18 0 30.5 13t12.5 30v128h-85q2 19 17 38q21 24 45 32zM117 329q-53 -66 -53 -158v-86h128q17 0 30 13t13 30v128h-86q2 19 17 38q20 23 45 32
q12 5 17 13q7 10 7 24v21q-47 -7 -71 -17q-29 -19 -47 -38z" />
    <glyph glyph-name="quotes-add" unicode="&#xe224;" 
d="M96 329q-10 -11 -20 -28.5t-21.5 -54t-11.5 -75.5v-86h128q17 0 29.5 13t12.5 30v128h-85q2 19 17 38q20 23 45 32q12 6 17 13q6 11 6 24v21q-47 -7 -70 -17q-29 -19 -47 -38zM427 405v86h-43v-86h-85v-42h85v-86h43v86h85v42h-85zM341 256q2 19 17 38l5 5v42h-41
q-8 -8 -13 -12q-53 -66 -53 -158v-86h128q17 0 30 13t13 30v128h-86z" />
    <glyph glyph-name="speech-bubble" unicode="&#xe225;" 
d="M405 85h-362l64 64v235h362v-235q0 -27 -18 -45.5t-46 -18.5z" />
    <glyph glyph-name="speech-bubbles" unicode="&#xe227;" 
d="M427 320v-192l42 -43h-298v235h256zM64 427h256v-86h-171v-149h-128l43 43v192z" />
    <glyph glyph-name="user-talk" unicode="&#xe228;" 
d="M107 384v-235l-64 -64h362q28 0 46 18.5t18 45.5v235h-362zM346 331q11 0 18 -8t7 -18t-7 -19t-18 -9t-18.5 8t-7.5 18t8 19t18 9zM230 331q11 0 18.5 -8t7.5 -18t-8 -19t-18 -9q-9 0 -17 8t-8 18t7 19t18 9zM288 149q-31 0 -55 11t-37 26.5t-22 31.5t-12 27l-2 11
q43 -21 128 -21q38 0 70 5.5t45 10.5l13 5q-1 -4 -3 -11.5t-11.5 -26t-22 -32.5t-37 -25.5t-54.5 -11.5z" />
    <glyph glyph-name="image" unicode="&#xe229;" 
d="M427 128l-86 85l-42 -42l-86 85l-42 -21l-86 -107h342zM469 405v-320h-426v320h426z" />
    <glyph glyph-name="image-add" unicode="&#xe230;" 
d="M363 256v85h-86v64h-277v-320h427v171h-64zM43 128l85 107l43 21l85 -85l43 42l85 -85h-341zM512 405h-85v86h-43v-86h-85v-42h85v-86h43v86h85v42z" />
    <glyph glyph-name="image-lock" unicode="&#xe231;" 
d="M469 427v21q0 3 -0.5 7t-4 15t-9.5 19.5t-19 15.5t-31 7q-28 0 -44 -16t-18 -32l-2 -16v-21h-21v-128h171v128h-22zM437 427h-64v21q0 4 1 9t9 14t22 9t22 -8t9 -16l1 -8v-21zM299 405h-278v-320h427v192h-149v128zM320 213l85 -85h-341l85 107l43 21l85 -85z" />
    <glyph glyph-name="photo-gallery" unicode="&#xe232;" 
d="M43 448h384v-43h-342v-256h-42v299zM320 171l-85 85l-86 -107h278l-64 64zM107 384h362v-277h-362v277z" />
    <glyph glyph-name="map-pin" unicode="&#xe233;" 
d="M405 299q0 62 -43.5 105.5t-105.5 43.5t-105.5 -43.5t-43.5 -105.5q0 -44 23 -79l126 -156l126 156q23 35 23 79zM256 213q-35 0 -60 25.5t-25 60.5t25 60t60 25t60 -25t25 -60t-25 -60.5t-60 -25.5z" />
    <glyph glyph-name="map-pin-add" unicode="&#xe234;" 
d="M512 427h-85v85h-43v-85h-85v-43h85v-85h43v85h85v43zM384 277h-21v84l-2 2h-84v40q-6 2 -21 2q-62 0 -105.5 -43.5t-43.5 -105.5q0 -42 23 -79l126 -156l126 156q23 37 23 79q0 15 -2 21h-19zM256 171q-35 0 -60 25t-25 60t25 60t60 25t60 -25t25 -60t-25 -60t-60 -25z
" />
    <glyph glyph-name="template-add" unicode="&#xe235;" 
d="M512 384h-85v85h-43v-85h-85v-43h85v-85h43v85h85v43zM405 235v-150h-341q-17 0 -30 13t-13 30v235h256v21h-277v-256q0 -27 18.5 -45.5t45.5 -18.5h363v171h-22z" />
    <glyph glyph-name="cite-article" unicode="&#xe238;" 
d="M149 256h192v21h-192v-21zM149 213h192v22h-192v-22zM149 171h192v21h-192v-21zM235 363h-86v-22h86v22zM235 320h-86v-21h86v21zM235 405h-86v-21h86v21zM341 448h43v-341h-213q-28 0 -46 18t-18 46v277h170v-149l32 42l32 -42v149z" />
    <glyph glyph-name="book" unicode="&#xe239;" 
d="M320 363q-27 0 -45.5 -18.5t-18.5 -45.5q0 27 -18.5 45.5t-45.5 18.5h-128v-278h128q26 0 45 -13t19 -29q0 16 19 29t45 13h128v278h-128zM427 107h-107q-10 0 -18 -1t-12.5 -2.5l-7.5 -2.5t-4 -2l-1 -1v190q0 22 15.5 37.5t38.5 15.5h96v-234z" />
    <glyph glyph-name="journal" unicode="&#xe240;" 
d="M341 320v21h-128v-21h128zM299 277v22h-86v-22h86zM128 405h21v-341h-21v341zM171 405h213v-277q0 -27 -18.5 -45.5t-45.5 -18.5h-149v341z" />
    <glyph glyph-name="newspaper" unicode="&#xe241;" 
d="M128 363v-256q-21 0 -21 21v192h-22v-192q0 -17 13 -30t30 -13h320v278h-320zM320 128h-149v21h149v-21zM320 171h-149v21h149v-21zM320 213h-149v22h149v-22zM405 128h-64v107h64v-107zM405 277h-234v43h234v-43z" />
    <glyph glyph-name="link" unicode="&#xe242;" 
d="M337 435q-13 0 -25 -3.5t-24.5 -13t-19.5 -15.5t-21.5 -20t-18.5 -18q2 0 8 1t9 1q17 0 32 -6l18 18t17.5 11.5t24.5 6.5q19 0 38 -15q17 -16 17 -38.5t-17 -38.5l-55 -55q-15 -15 -38 -15q-36 0 -56 42l-28 -27q30 -56 81 -56q41 0 64 28l56 55q32 34 32 71
q-3 35 -31 61t-63 26zM245 177l-19 -19q-13 -15 -38 -15q-21 0 -39 15q-16 16 -16 39t16 38l56 55q13 15 38 15q35 0 56 -43l27 28q-30 56 -81 56q-39 0 -64 -28l-55 -56q-27 -27 -27 -64.5t27 -63.5q26 -26 64 -26.5t62 26.5l40 41q-6 -2 -19 -2q-19 0 -28 4z" />
    <glyph glyph-name="signature" unicode="&#xe243;" 
d="M0 85h512v-21h-512v21zM128 256l-21 21l-43 -42l-43 42l-21 -21l43 -43l-43 -42l21 -22l43 43l43 -43l21 22l-43 42zM461 177q-31 18 -58 0q-14 -8 -30.5 -10t-26.5 0l-9 2q-20 10 -23 12q80 22 128 84q14 15 23 34.5t7.5 46t-22.5 47.5q-25 24 -57 21q-45 -3 -84 -45
q-23 -27 -41.5 -72.5t-7.5 -87.5q0 -4 2 -6q-80 -11 -93 -2v-32q39 -8 108 4q16 -21 49 -34l5 -1q5 -1 11.5 -2.5t16 -1.5t19.5 1t22 5t22 11q13 8 24 0q15 -7 15 -21h30q0 28 -30 47zM290 213q-7 31 8.5 69.5t34.5 63.5q28 31 60 34h2q17 0 32 -13q10 -10 12 -22t-0.5 -22
t-8 -20t-9 -14.5t-5.5 -6.5q-41 -55 -124 -75q0 1 -1 3t-1 3z" />
    <glyph glyph-name="list-numbered" unicode="&#xe244;" 
d="M448 363h-277v42h277v-42zM448 235h-277v42h277v-42zM448 107h-277v42h277v-42zM85 427h43v-86h-21v64h-22v22zM64 299v21h64v-64h-43v-21h43v-22h-64v64h43v22h-43zM128 85h-64v22h43v21h-22v21h22v22h-43v21h64v-107z" />
    <glyph glyph-name="list-bullet" unicode="&#xe245;" 
d="M448 363h-256v42h256v-42zM149 384q0 -17 -12.5 -30t-29.5 -13q-18 0 -30.5 13t-12.5 30t12.5 30t30.5 13q17 0 29.5 -13t12.5 -30zM448 235h-256v42h256v-42zM149 256q0 -17 -12.5 -30t-29.5 -13q-18 0 -30.5 13t-12.5 30t12.5 30t30.5 13q17 0 29.5 -13t12.5 -30z
M448 107h-256v42h256v-42zM149 128q0 -17 -12.5 -30t-29.5 -13q-18 0 -30.5 13t-12.5 30t12.5 30t30.5 13q17 0 29.5 -13t12.5 -30z" />
    <glyph glyph-name="indent-left" unicode="&#xe246;" 
d="M213 341h192v-42h-192v42zM213 277h192v-42h-192v42zM213 213h128v-42h-128v42zM448 384h-384v43h384v-43zM448 85h-384v43h384v-43zM64 256l107 -85v170z" />
    <glyph glyph-name="indent-right" unicode="&#xe247;" 
d="M213 341h192v-42h-192v42zM213 277h192v-42h-192v42zM213 213h128v-42h-128v42zM448 384h-384v43h384v-43zM448 85h-384v43h384v-43zM64 341v-170l107 85z" />
    <glyph glyph-name="wikitext-no" unicode="&#xe248;" 
d="M341 213l43 -42v234h-85v-42h42v-150zM341 171l-298 298l-22 -21l43 -43h-21v-298h85v42h-43v214h22l42 -43v-213h86v42h-43v128l128 -128h-21v-42h64l85 -86l21 22zM235 363v42h-86l43 -42h43zM405 405v-42h43v-214h-43l43 -42h43v298h-86z" />
    <glyph glyph-name="wikitext" unicode="&#xe249;" 
d="M491 405h-86v-42h43v-214h-43v-42h86v298zM384 405h-85v-42h42v-214h-42v-42h85v298zM43 405h85v-42h-43v-214h43v-42h-85v298zM149 405h86v-42h-43v-214h43v-42h-86v298z" />
    <glyph glyph-name="folder-placeholder" unicode="&#xe250;" 
d="M43 405v-320h426v320h-426zM363 171h-192q-22 0 -22 21v128h64l43 -21h107v-128z" />
    <glyph glyph-name="edit-lock-1" unicode="&#xe302;" 
d="M277 307l-145 -147q-9 9 -21 17q107 107 166 169v38l-192 -192l-21 -107l107 22l170 170h-64v30z" />
    <glyph glyph-name="edit-lock-2" unicode="&#xe303;" 
d="M448 427v21q0 3 -0.5 7t-4 15t-9.5 19.5t-19 15.5t-31 7q-28 0 -44 -16t-18 -32l-2 -16v-21h-21v-128h170v128h-21zM416 427h-64v21q0 4 1 9t9 14t22 9t22 -8t9 -16l1 -8v-21z" />
    <glyph glyph-name="quotes-add-1" unicode="&#xe304;" 
d="M96 329q-10 -11 -20 -28.5t-21.5 -54t-11.5 -75.5v-86h128q17 0 29.5 13t12.5 30v128h-85q2 19 17 38q20 23 45 32q12 6 17 13q6 11 6 24v21q-47 -7 -70 -17q-29 -19 -47 -38zM341 256q2 19 17 38l5 5v42h-41q-8 -8 -13 -12q-53 -66 -53 -158v-86h128q17 0 30 13t13 30
v128h-86z" />
    <glyph glyph-name="quotes-add-2" unicode="&#xe305;" 
d="M427 405v86h-43v-86h-85v-42h85v-86h43v86h85v42h-85z" />
    <glyph glyph-name="image-add-1" unicode="&#xe306;" 
d="M363 256v85h-86v64h-277v-320h427v171h-64zM43 128l85 107l43 21l85 -85l43 42l85 -85h-341z" />
    <glyph glyph-name="image-add-2" unicode="&#xe307;" 
d="M512 405h-85v86h-43v-86h-85v-42h85v-86h43v86h85v42z" />
    <glyph glyph-name="image-lock-1" unicode="&#xe308;" 
d="M299 405h-278v-320h427v192h-149v128zM320 213l85 -85h-341l85 107l43 21l85 -85z" />
    <glyph glyph-name="image-lock-2" unicode="&#xe309;" 
d="M469 427v21q0 3 -0.5 7t-4 15t-9.5 19.5t-19 15.5t-31 7q-28 0 -44 -16t-18 -32l-2 -16v-21h-21v-128h171v128h-22zM437 427h-64v21q0 4 1 9t9 14t22 9t22 -8t9 -16l1 -8v-21z" />
    <glyph glyph-name="map-pin-add-1" unicode="&#xe310;" 
d="M384 277h-21v84l-2 2h-84v40q-6 2 -21 2q-62 0 -105.5 -43.5t-43.5 -105.5q0 -42 23 -79l126 -156l126 156q23 37 23 79q0 15 -2 21h-19zM256 171q-35 0 -60 25t-25 60t25 60t60 25t60 -25t25 -60t-25 -60t-60 -25z" />
    <glyph glyph-name="map-pin-add-2" unicode="&#xe311;" 
d="M512 427h-85v85h-43v-85h-85v-43h85v-85h43v85h85v43z" />
    <glyph glyph-name="template-add-1" unicode="&#xe312;" 
d="M405 235v-150h-341q-17 0 -30 13t-13 30v235h256v21h-277v-256q0 -27 18.5 -45.5t45.5 -18.5h363v171h-22z" />
    <glyph glyph-name="template-add-2" unicode="&#xe313;" 
d="M512 384h-85v85h-43v-85h-85v-43h85v-85h43v85h85v43z" />
    <glyph glyph-name="wikimedia-commons" unicode="&#xe500;" 
d="M329 346q-38 17 -52 59l43 -21l-64 107l-64 -107l43 21q0 -17 12 -44q8 -14 19.5 -26t19.5 -17l8 -4q35 -15 47 -28l-15 -15l-10 11l-9 -39l39 9l-11 10l15 15q31 -34 34 -81h-21v17l-32 -21l32 -21v17h21q-3 -50 -34 -81l-15 15l11 10l-39 9l9 -39l10 11l15 -15
q-34 -31 -81 -34v21h17l-21 32l-21 -32h17v-21q-50 3 -81 34l15 15l10 -11l9 39l-39 -9l11 -10l-15 -15q-31 34 -34 81h21v-17l32 21l-32 21v-17h-21q3 50 34 81l15 -15l-11 -10l39 -9l-9 39l-10 -11l-15 15l-32 30q-54 -51 -54 -124q0 -70 50.5 -120.5t120.5 -50.5
t120.5 50.5t50.5 120.5q0 50 -27 91t-71 63zM320 192q0 -26 -19 -45t-45 -19t-45 19t-19 45t19 45t45 19t45 -19t19 -45z" />
    <glyph glyph-name="wikipedia" unicode="&#xe501;" 
d="M476 378q0 -7 -2 -7q-21 -3 -35 -23q-1 -2 -2 -4.5l-2 -5t-2 -5.5l-98 -216l-4 -6q-2 -2 -5 -2q-7 0 -10 8l-56 118l-59 -118q-4 -8 -11 -8q-8 0 -11 8l-92 216q-7 20 -17 30q-5 5 -21 8q-2 2 -2 7q0 6 2 6h45h47q2 -2 2 -6q0 -7 -2 -7q-22 -3 -24 -8q-3 -7 7 -26
l77 -175h2l47 94l-37 77q-9 22 -17 30q-5 5 -19 8q-2 2 -2 7q0 6 2 6h38h39q2 -2 2 -6q0 -7 -2 -7q-13 -3 -13 -8q0 -9 9 -26l21 -40l21 40q11 20 11 24q0 6 -2 8t-11 2q0 1 -1 3t-1 4q0 6 2 6h32h32q2 -2 2 -6q0 -7 -2 -7q-16 -3 -23 -10q-12 -12 -17 -28l-28 -60l53 -111
h2l79 173q9 13 5 26q-3 7 -24 10q-2 2 -2 7q0 6 2 6h41h38q-4 -2 -4 -6z" />
    <glyph glyph-name="wikitrail" unicode="&#x504;" 
d="M320 320l15 38q29 -12 51 -19l-13 -36v-4zM228 361l17 38q55 -23 64 -30l-17 -38zM102 382q-23 0 -42 -13l-24 36q29 20 66 20v-43zM11 367l38 -17q-8 -21 -2 -39l-41 -14q-10 41 5 70zM100 252l-27 -32q-40 39 -43 42l32 28q23 -26 38 -38zM256 160q0 -31 -22 -53
t-53 -22q-30 0 -52 22t-22 53t22 53t52 22q31 0 53 -22t22 -53zM512 341l-21 22l-32 -32l-32 32l-22 -22l32 -32l-32 -32l22 -21l32 32l32 -32l21 21l-32 32zM213 405q0 -17 -12.5 -29.5t-29.5 -12.5q-18 0 -30.5 12.5t-12.5 29.5q0 18 12.5 30.5t30.5 12.5q17 0 29.5 -12.5
t12.5 -30.5z" />
    <glyph glyph-name="heart" unicode="&#xe001;" 
d="M320 384q-19 0 -35 -11t-23 -21l-6 -11q-2 5 -7 12t-21.5 19t-35.5 12q-38 0 -61.5 -26t-23.5 -59q0 -38 27 -65.5t66.5 -54.5t55.5 -51q16 24 55.5 51t66.5 54.5t27 65.5q0 33 -23.5 59t-61.5 26z" />
    <glyph glyph-name="star" unicode="&#xe002;" 
d="M256 354l36 -77l86 -10l-58 -60l11 -83l-75 36l-77 -36l13 83l-60 60l83 10zM256 427l-60 -120l-132 -19l96 -94l-23 -130l119 64l117 -64l-21 132l96 94l-134 19z" />
    <glyph glyph-name="unstar" unicode="&#xe003;" 
d="M448 277l-128 22l-64 128l-64 -128l-128 -22l85 -85l-21 -128l128 64l128 -64l-21 128z" />
    <glyph glyph-name="watchlist" unicode="&#xe004;" 
d="M277 213h107v-21h-107v21zM277 149h107v22h-107v-22zM277 128h107v-21h-107v21zM256 235v-64l-107 -64l22 128l-86 64l128 21l43 107q41 -107 43 -107l128 -21l-86 -64h-85z" />
    <glyph glyph-name="sun" unicode="&#xe005;" 
d="M386 403q0 -10 -6 -19l-30 -30l-19 17l47 47q8 -3 8 -15zM376 290h68q0 -11 -9 -19q-9 -9 -17 -9h-42v28zM243 397v68q11 0 19 -8q9 -9 9 -18v-42h-28zM380 147q-11 0 -17 6l-30 30l17 18l47 -47q-6 -7 -17 -7zM132 407q11 0 17 -6l30 -30l-17 -19l-47 49q7 6 17 6z
M243 158h26v-68q-11 0 -19 8q-9 8 -9 17zM94 290h43v-26h-69q0 11 9 20q6 6 17 6zM132 171l30 30l17 -18l-47 -46q-6 6 -6 17q0 10 6 17zM341 277q0 -35 -25 -60t-60 -25t-60 25t-25 60t25 60.5t60 25.5t60 -25.5t25 -60.5z" />
    <glyph glyph-name="funnel" unicode="&#xe006;" 
d="M235 235l-128 149h320l-128 -149v-150q-28 0 -46 18.5t-18 45.5v86z" />
    <glyph glyph-name="eye-closed" unicode="&#xe008;" 
d="M414 241q23 26 30 58h-34q-15 -41 -60 -68t-105 -30h-2q-59 3 -104.5 30t-59.5 68h-32q4 -25 30 -58l-43 -43l15 -15l43 43q26 -20 57 -36l-21 -60l19 -6l22 59q42 -12 66 -12v-64h21v64q39 3 66 12l21 -59l20 6l-22 60q31 11 56 36l42 -43l15 15z" />
    <glyph glyph-name="printer" unicode="&#xe009;" 
d="M384 341h-21v86h-214v-86h-85v-128q0 -27 18.5 -45.5t45.5 -18.5h21v-64h214v64h85v128q0 28 -18.5 46t-45.5 18zM171 405h170v-64h-170v64zM341 107h-170v128h170v-128z" />
    <glyph glyph-name="puzzle" unicode="&#xe010;" 
d="M403 279q-26 0 -38 -19v103h-86q9 14 9 25q0 20 -14 33.5t-33 13.5q-21 1 -35 -12.5t-14 -34.5q0 -11 9 -25h-94v-77q2 0 6 1t6 1q23 0 38.5 -15.5t15.5 -37.5q0 -23 -15.5 -38.5t-38.5 -15.5q-8 0 -12 2v-76h104q-19 -17 -19 -39q0 -19 14 -33t35 -14q19 0 33 14t14 33
q0 26 -19 39h96v96q15 -20 38 -20q19 0 33 14t14 33q0 21 -13.5 35t-33.5 14z" />
    <glyph glyph-name="clock" unicode="&#xe011;" 
d="M256 405q-70 0 -120.5 -50t-50.5 -120q0 -71 50.5 -121t120.5 -50t120.5 50t50.5 121q0 70 -50.5 120t-120.5 50zM320 149l-85 64v128h42v-106l37 -26q33 -23 6 -60z" />
    <glyph glyph-name="dice" unicode="&#xe012;" 
d="M341 405h-256v-256q0 -26 18.5 -45t45.5 -19h256v256q0 27 -19 45.5t-45 18.5zM160 149q-13 0 -22.5 9.5t-9.5 22.5t9.5 22.5t22.5 9.5t22.5 -9.5t9.5 -22.5t-9.5 -22.5t-22.5 -9.5zM160 277q-13 0 -22.5 9.5t-9.5 22.5t9.5 22.5t22.5 9.5t22.5 -9.5t9.5 -22.5
t-9.5 -22.5t-22.5 -9.5zM245 213q-13 0 -22.5 9.5t-9.5 22.5t9.5 22.5t22.5 9.5t22.5 -9.5t9.5 -22.5t-9.5 -22.5t-22.5 -9.5zM331 149q-13 0 -22.5 9.5t-9.5 22.5t9.5 22.5t22.5 9.5t22.5 -9.5t9.5 -22.5t-9.5 -22.5t-22.5 -9.5zM331 277q-13 0 -22.5 9.5t-9.5 22.5
t9.5 22.5t22.5 9.5t22.5 -9.5t9.5 -22.5t-9.5 -22.5t-22.5 -9.5z" />
    <glyph glyph-name="magnifying-glass" unicode="&#xe000;" 
d="M350 162q34 42 34 94q0 62 -43.5 105.5t-105.5 43.5q-63 0 -106.5 -43.5t-43.5 -105.5t43.5 -105.5t106.5 -43.5q39 0 68 17l60 -60q23 -23 42 -23.5t43 23.5zM128 256q0 45 31 76t76 31q44 0 75 -31t31 -76t-31 -76t-75 -31q-45 0 -76 31.5t-31 75.5z" />
    <glyph glyph-name="caret-right" unicode="&#xe056;" 
d="M149 427q-13 -13 -13 -32t13 -32l128 -128l-128 -128q-13 -13 -13 -32t13 -32l192 192z" />
    <glyph glyph-name="eye" unicode="&#xe007;" 
d="M256 384q-48 0 -106.5 -32t-93.5 -64l-35 -32q5 -5 14.5 -13.5t37 -31t54.5 -39t63 -30.5t66 -14q48 0 106.5 32t93.5 64l35 32q-5 5 -14.5 13.5t-37 31t-54.5 39t-63 30.5t-66 14zM256 171q-35 0 -60 25t-25 60t25 60t60 25t60 -25t25 -60t-25 -60t-60 -25zM256 171
l43 85q0 -18 -12.5 -30.5t-30.5 -12.5t-30.5 12.5t-12.5 30.5t12.5 30.5t30.5 12.5t30.5 -12.5t12.5 -30.5zM256 171z" />
    <glyph glyph-name="trash" unicode="&#xe130;" 
d="M128 363q0 17 12.5 29.5t30.5 12.5h42l22 22h42l22 -22h42q18 0 30.5 -12.5t12.5 -29.5h-256zM149 341h214l-22 -234h-170z" />
    <glyph glyph-name="trash-undo" unicode="&#xe131;" 
d="M437 96l-330 331l-22 -22l64 -64l22 -234h170l5 38l70 -70zM363 341h-128l117 -117zM384 363q0 17 -12.5 29.5t-30.5 12.5h-42l-22 22h-42l-22 -22h-42l42 -42h171z" />
    <glyph glyph-name="bookmark" unicode="&#xe237;" 
d="M320 405h-149q-18 0 -30.5 -12.5t-12.5 -29.5v-64h64v-235l85 64l86 -64v299q0 17 -13 29.5t-30 12.5zM192 320h-43v43q0 9 6 15t16 6h21v-64z" />
    <glyph glyph-name="block" unicode="&#xe132;" 
d="M256 427q-70 0 -120.5 -50.5t-50.5 -120.5t50.5 -120.5t120.5 -50.5t120.5 50.5t50.5 120.5t-50.5 120.5t-120.5 50.5zM363 235h-214v42h214v-42z" />
    <glyph glyph-name="block-undo" unicode="&#xe133;" 
d="M363 277v-42h-43l77 -77q30 44 30 98q0 70 -50.5 120.5t-120.5 50.5q-54 0 -98 -30l119 -120h86zM85 427l-21 -22l51 -51q-30 -44 -30 -98q0 -70 50.5 -120.5t120.5 -50.5q54 0 98 30l51 -51l22 21zM149 235v42h43l43 -42h-86z" />
    <glyph glyph-name="public-domain" unicode="&#xe503;" 
d="M335 228q6 14 6 28h-36zM331 331q-18 32 -56 39.5t-68 -14.5l26 -25q20 15 43 3.5t25 -35.5h38q0 22 -8 32zM256 427q-62 0 -105.5 -43.5t-43.5 -106.5q0 -62 43.5 -105.5t105.5 -43.5t105.5 43.5t43.5 105.5q0 63 -43.5 106.5t-105.5 43.5zM128 277q0 34 21 69l30 -30
q-10 -27 -5.5 -58t24.5 -53q19 -19 49.5 -23.5t55.5 8.5l21 -24q-30 -19 -66 -19q-54 1 -92 39t-38 91zM211 282l64 -67q-33 -10 -53 18q-11 17 -11 49zM348 188l-179 181q31 36 87 36q53 0 90.5 -37.5t37.5 -90.5q0 -50 -36 -89z" />
    <glyph glyph-name="edit" unicode="&#xe220;" 
d="M341 448l-256 -256l-21 -107l107 22l256 256q0 32 -27 58.5t-59 26.5zM132 160q-9 9 -21 17l241 243q13 -3 21 -15z" />
    <glyph glyph-name="edit-undo" unicode="&#xe221;" 
d="M316 448q31 0 55 -11q34 -16 41 -36q-86 0 -139 -66l26 -41l-143 5l10 143l37 -41q49 47 113 47zM299 275h-56l-113 -117q-2 5 -5.5 8.5t-8.5 7t-7 5.5q11 11 46.5 47t55.5 56h-40l-86 -90l-21 -107l107 22l164 168h-36zM418 382q-51 0 -92 -30l-21 -15l15 -26l21 -29
l86 85q-5 11 -9 15z" />
    <glyph glyph-name="edit-undo-2" unicode="&#xe301;" 
d="M316 448q31 0 55 -11q34 -16 41 -36q-86 0 -139 -66l26 -41l-143 5l10 143l37 -41q49 47 113 47z" />
    <glyph glyph-name="edit-undo-1" unicode="&#xe300;" 
d="M299 275h-56l-113 -117q-2 5 -5.5 8.5t-8.5 7t-7 5.5q11 11 46.5 47t55.5 56h-40l-86 -90l-21 -107l107 22l164 168h-36zM418 382q-51 0 -92 -30l-21 -15l15 -26l21 -29l86 85q-5 11 -9 15z" />
    <glyph glyph-name="bright-full" unicode="&#xe036;" 
d="M386 378q0 -10 -6 -20l-30 -29l-19 17l47 47q8 -4 8 -15zM375 265h69q0 -11 -9 -20q-8 -8 -17 -8h-43v28zM243 371v68q11 0 19 -8q9 -8 9 -17v-43h-28zM380 122q-11 0 -17 6l-30 30l17 17l47 -47q-6 -6 -17 -6zM132 382q11 0 17 -7l30 -29l-17 -20l-47 49q6 7 17 7z
M243 132h26v-68q-11 0 -19 9q-9 8 -9 17zM94 265h43v-26h-69q0 11 9 19q6 7 17 7zM132 145l30 30l17 -17l-47 -47q-6 6 -6 17t6 17zM256 316q27 0 45.5 -18.5t18.5 -45.5q0 -28 -18.5 -46t-45.5 -18t-45.5 18t-18.5 46q0 27 18.5 45.5t45.5 18.5zM256 337q-35 0 -60 -25
t-25 -60t25 -60.5t60 -25.5t60 25.5t25 60.5t-25 60t-60 25zM256 316q27 0 45.5 -18.5t18.5 -45.5q0 -28 -18.5 -46t-45.5 -18t-45.5 18t-18.5 46q0 27 18.5 45.5t45.5 18.5zM256 337q-35 0 -60 -25t-25 -60t25 -60.5t60 -25.5t60 25.5t25 60.5t-25 60t-60 25z" />
    <glyph glyph-name="sun-moon" unicode="&#xe037;" 
d="M243 371v68q11 0 19 -8q9 -8 9 -17v-43h-28zM132 382q11 0 17 -7l30 -29l-17 -20l-47 49q6 7 17 7zM243 132h26v-68q-11 0 -19 9q-9 8 -9 17zM94 265h43v-26h-69q0 11 9 19q6 7 17 7zM132 145l30 30l17 -17l-47 -47q-6 6 -6 17t6 17zM256 337q-35 0 -60 -25t-25 -60
t25 -60.5t60 -25.5t60 25.5t25 60.5t-25 60t-60 25zM192 252q0 27 18.5 45.5t45.5 18.5v-128q-27 0 -45.5 18t-18.5 46z" />
    <glyph glyph-name="cc" unicode="&#xe502;" 
d="M256 427q-62 0 -105.5 -43.5t-43.5 -106.5q0 -62 43.5 -105.5t105.5 -43.5t105.5 43.5t43.5 105.5q0 63 -43.5 106.5t-105.5 43.5zM256 149q-52 0 -90 37.5t-38 90.5t37.5 90.5t90.5 37.5t90.5 -37.5t37.5 -90.5t-38 -90.5t-90 -37.5zM220 247q-22 0 -22 26t22 26
q10 0 17 -13l19 11q-14 21 -41 21q-19 0 -32 -13q-12 -12 -12 -32q0 -22 12 -34q13 -13 32 -13q23 0 41 24l-19 8q-7 -11 -17 -11zM305 247q-21 0 -21 26t21 26q11 0 17 -13l19 11q-12 21 -40 21q-20 0 -32 -13q-13 -12 -13 -32q0 -22 13 -34q12 -13 32 -13q24 0 40 24
l-19 8q-7 -11 -17 -11z" />
    <glyph glyph-name="cite" unicode="&#xe236;" 
d="M107 427v-342h234q28 0 46 18.5t18 45.5v278h-298zM341 107h-192v298h86v-170l42 42l43 -42v170h64v-256q0 -17 -12.5 -29.5t-30.5 -12.5z" />
    <glyph glyph-name="translation" unicode="&#xe021;" 
d="M427 141l27 -77h39l-90 277h-53l-94 -277h38l26 77h107zM373 309l45 -132h-89zM173 363h19l-21 42h-43l11 -21q10 -21 34 -21zM254 309h43l10 32h-264v-32h40q19 -56 60 -100q-30 -23 -102 -49l10 -32q69 21 118 58q34 -27 74 -39l11 32q-34 10 -60 30q14 14 25.5 30
t17 26.5t9.5 19t4 9.5zM169 230q-38 38 -50 79h101q-13 -36 -51 -79z" />
    <glyph glyph-name="speech-bubble-add" unicode="&#xe226;" 
d="M107 384v-235l-64 -64h362q28 0 46 18.5t18 45.5v235h-362zM363 235h-64v-64h-22v64h-64v21h64v64h22v-64h64v-21z" />
    <glyph glyph-name="clip" unicode="&#xe042;" 
d="M399 386q-26 25 -63 24.5t-61 -26.5l4 -4q18 -18 45 -9q28 12 51 -13q16 -15 15.5 -35.5t-15.5 -36.5l-151 -152q-15 -15 -35.5 -15t-37.5 15q-15 15 -15 36t15 37l94 94q16 14 28 2t-2 -28l-73 -72q-9 -10 -8.5 -25t11.5 -24l91 91q27 27 19 58q-6 29 -36 40
q-31 8 -55 -14l-94 -94q-26 -25 -25.5 -62.5t27.5 -61.5q24 -25 62 -24.5t62 26.5l149 149q26 26 26 64q0 35 -28 60v0v0v0z" />
    <glyph glyph-name="triangle-up" unicode="&#xe062;" 
d="M85 128h342l-171 213z" />
    <glyph glyph-name="triangle-right" unicode="&#xe063;" 
d="M171 427v-342l213 171z" />
    <glyph glyph-name="triangle-left" unicode="&#xe064;" 
d="M171 256l213 -171v342z" />
    <glyph glyph-name="star-half" unicode="&#xe043;" 
d="M256 354l36 -77l86 -10l-58 -60l11 -83l-75 36v194zM256 427l-60 -120l-132 -19l96 -94l-23 -130l119 64l117 -64l-21 132l96 94l-134 19z" />
    <glyph glyph-name="uniE067" unicode="&#xe067;" 
d="M384.5 287q0 28 -18.5 46t-45.5 18v-149h-64l96 -107l96 107h-64v85zM127.5 187q0 -28 18.5 -46t45.5 -18v149h64l-96 107l-96 -107h64v-85z" />
    <glyph glyph-name="help" unicode="&#xe251;" 
d="M85.3975 232.069l-0.0429688 3.64844q0.788086 44.8037 23.0898 82.6201q22.3018 37.8164 59.3213 59.7158q39.9385 25.2793 88.2344 25.2793q48.2939 0 88.1709 -25.2373q37.7266 -22.3203 60.1113 -61.0127q22.3848 -38.6924 22.3848 -84.416l-0.0644531 -0.597656
q-0.426758 -47.5908 -24.5518 -87.1318q-24.126 -39.542 -64.3867 -61.1992l-0.277344 -0.169922q-36.5312 -21.5684 -81.3867 -21.5684q-44.9951 0 -82.3682 22.123q-26.1592 14.0684 -45.8779 36.3281t-30.8955 51.126q-11.1777 28.8662 -11.4609 60.4922zM405.27 232.069
h-42.667q-0.314453 -19.8594 -7.37793 -37.8799q-7.0625 -18.0205 -19.4912 -31.9453q-12.4297 -13.9238 -28.9814 -22.8037l20.6084 -37.1416q35.166 18.8975 56.2852 53.4678q21.1191 34.5703 21.624 76.3027zM106.73 232.069q0.504883 -41.7021 21.5635 -76.2539
q21.0596 -34.5518 55.9619 -53.3037l21.248 36.7998q-25.0537 13.0967 -40.3438 37.8799t-15.7627 54.8779h-42.667zM170.73 232.069q0 -32.5146 26.332 -58.625q26.332 -26.1113 58.9375 -26.1113t58.9375 26.1113q26.332 26.1104 26.332 58.625
q0.0634766 0.000976562 0.0634766 0.597656q0 21.0674 -11.4551 40.7588q-11.4551 19.6904 -31.376 32.1318q-19.9209 12.4424 -42.502 12.4424q-35.5244 0 -60.3975 -25.1357q-24.8721 -25.1348 -24.8721 -60.7949zM333.227 359.877q-35.0049 22.123 -77.2266 22.123
q-42.2227 0 -77.291 -22.165l21.8672 -36.4375q25.2529 15.9355 55.4238 15.9355q30.1982 0 55.3389 -15.9141z" />
    <glyph glyph-name="game" unicode="&#xe252;" 
d="M85.333 232.667q0 71.7432 49.4619 121.205q49.4609 49.4609 121.205 49.4609q70.752 0 120.71 -49.957q49.957 -49.957 49.957 -120.709q0 -70.752 -49.958 -120.71q-49.957 -49.957 -120.709 -49.957q-76.5146 0 -123.591 51.4316q-47.0762 51.4316 -47.0762 119.235z
M189.568 320.069q40.3525 -33.8984 77.0986 -82.0693q46.4014 -60.8447 76.9277 -126.251q28.5898 20.7461 45.1641 52.5146t16.5742 68.4033q0 27.708 -9.64258 50.624q-9.64746 14.0732 -24.3193 21.6533q-46.9668 24.1133 -116.673 23.1465
q-33.8633 -0.504883 -65.1299 -8.02148zM189.44 320.048q-44.2422 -10.7363 -72.2354 -32.1914q-10.5381 -26.4648 -10.5381 -55.1895q0 -61.6299 43.541 -105.345q-15.498 60.2188 13.8457 139.798q10.4385 28.2754 25.4502 52.8428zM190.037 320.816
q24.7207 40.0889 54.9121 60.7783q-45.252 -3.29883 -84.9492 -36.2451q25.8359 -21.3369 29.291 -25.1523h0.362305z" />
    <glyph glyph-name="id" unicode="&#xe253;" 
d="M384 352v-256h-256v256h256zM341.333 309.333h-170.666v-170.666h170.666v170.666zM213.7 181.697v84.5645h84.5654v-84.5645h-84.5654z" />
    <glyph glyph-name="tag" unicode="&#xe254;" 
d="M85.333 179.114l224 214.571q38.0552 -45.2981 68.6299 -81.707q16.1451 -19.2309 15.0533 -44.3093q-1.09176 -25.0785 -18.8512 -42.8372l-171.498 -171.499h-117.334v125.781zM149.333 138.667q-8.83162 0 -15.0823 -6.25089q-6.25069 -6.25089 -6.25069 -15.0831
q0 -8.83154 6.25073 -15.0823t15.0823 -6.25073q4.33797 0 8.28856 1.69039t6.8076 4.54732q2.857 2.85693 4.54742 6.80729q1.69041 3.95036 1.69041 8.288q0 8.83228 -6.25085 15.0831q-6.25085 6.25085 -15.0831 6.25085z" />
    <glyph glyph-name="task" unicode="&#xe255;" 
d="M384 256.427v-203.094h-212.438q-26.8798 0 -45.8876 19.0083q-19.0079 19.0083 -19.0079 45.8882v9.34375l74.2393 -74.2402zM394.667 352q12.7998 12.7998 31.9996 12.7998q19.1998 0 32.0004 -12.7998l-277.334 -277.333l-138.666 138.666l32 32l106.666 -106.666z
M106.667 234.709v95.958h213.695q13.6805 0 26.0908 -5.58984l-165.077 -165.077z" />
    <glyph glyph-name="photo" unicode="&#xe256;" 
d="M434.253 352.205v-256.973h-281.626q-31.7952 0 -54.2848 22.4896q-22.4896 22.4896 -22.4896 54.2848v180.198h358.4zM294.4 300.8q-31.7953 0 -54.298 -22.5024q-22.5028 -22.5024 -22.5028 -54.2974q0 -15.6162 6.08541 -29.8379q6.08541 -14.2216 16.3705 -24.5065
q10.2851 -10.2849 24.5068 -16.3702q14.2217 -6.08527 29.838 -6.08527q31.7952 0 54.2975 22.5023q22.5023 22.5023 22.5023 54.2975t-22.5023 54.2975q-22.5023 22.5023 -54.2975 22.5023zM141.799 327.193q-10.4871 0 -19.3816 -5.17089
q-8.89441 -5.17089 -14.0592 -14.0635q-5.16475 -8.89262 -5.16475 -19.3701q0 -10.4775 5.16475 -19.3701q5.16475 -8.89262 14.0592 -14.0635q8.89441 -5.17089 19.3816 -5.17089q15.9741 0 27.2893 11.3152q11.3152 11.3152 11.3152 27.2893q0 15.9741 -11.3152 27.2893
q-11.3152 11.3152 -27.2893 11.3152z" />
    <glyph glyph-name="depicted-person" unicode="&#xe257;" 
d="M448 373.333v-298.666h-319.936q-26.5511 0 -45.291 18.7734q-18.7734 18.7384 -18.7734 45.29v234.603h384zM256 194.368q-47.8306 0 -77.2488 -21.9134q-29.4182 -21.9134 -29.4182 -43.2604v-11.8613h213.334v11.8613q0 21.347 -29.4182 43.2604
q-29.4182 21.9134 -77.2488 21.9134zM256 330.667q-24.528 0 -41.8958 -17.3682q-17.3678 -17.3682 -17.3678 -41.8964q0 -24.5281 17.3678 -41.8959q17.3678 -17.3678 41.8959 -17.3678t41.8959 17.3678q17.3678 17.3678 17.3678 41.8959q0 24.5282 -17.3678 41.8964
q-17.3678 17.3682 -41.8958 17.3682z" />
    <glyph glyph-name="depicted-place" unicode="&#xe258;" 
d="M448 373.333v-298.666h-320.106q-26.442 0 -45.1846 18.709q-18.709 18.7426 -18.709 45.1836v234.773h384zM338.944 247.723q0 34.6771 -24.1466 58.8107q-24.1466 24.1336 -58.7977 24.1336q-34.6399 0 -58.7921 -24.1522q-24.1522 -24.1522 -24.1522 -58.7921
q0 -23.4396 13.0352 -43.8613l69.9092 -86.5283l69.9092 86.5283q13.0352 20.4217 13.0352 43.8613zM256 200.277q-19.5359 0 -33.4584 13.9225q-13.9225 13.9225 -13.9225 33.4584q0 19.5544 13.9237 33.4999q13.9237 13.9455 33.4572 13.9455q19.5359 0 33.4584 -13.9225
q13.9225 -13.9225 13.9225 -33.4584q0 -19.542 -13.9255 -33.4937q-13.9255 -13.9517 -33.4553 -13.9517z" />
    <glyph glyph-name="depicted-time" unicode="&#xe259;" 
d="M448 373.333v-298.666h-320.106q-26.442 0 -45.1846 18.709q-18.709 18.7426 -18.709 45.1836v234.773h384zM256 288q-26 0 -45 -19t-19 -45t19 -45t45 -19t45 19t19 45t-19 45t-45 19z" />
    <glyph glyph-name="uniE260" unicode="&#xe260;" 
d="M256 74.667h-192v149.333h42.667v-106.667h149.333v-42.666zM448 224h-42.667v106.667h-149.333v42.666h192v-149.333z" />
    <glyph glyph-name="production-date" unicode="&#xe262;" 
d="M384 373.333h64v-341.333h-321.109q-26.0479 0 -44.4692 18.4214t-18.4214 44.4692v278.442h64v-21.6748q0 -17.5346 12.3945 -29.9307q12.3961 -12.3945 29.9307 -12.3945q17.8334 0 30.4219 12.5869q12.5859 12.5875 12.5859 30.3789v21.0342h85.334v-21.6748
q0 -17.5361 12.3945 -29.9307t29.9307 -12.3945q17.834 0 30.4209 12.5869t12.5869 30.3789v21.0342zM405.333 266.667h-298.666v-164.758q0 -11.2515 7.97852 -19.2637q8.01214 -7.97852 19.2637 -7.97852h271.424v192zM362.667 394.453v-42.4531
q0 -8.83218 -6.25081 -15.0826q-6.25081 -6.25041 -15.0832 -6.25041q-8.86551 0 -15.082 6.25q-6.25098 6.21749 -6.25098 15.0615v42.9229q0 8.73633 6.18115 14.9175t14.9175 6.18115q8.97195 0 15.2529 -6.31445q6.31543 -6.28196 6.31543 -15.2324zM192 394.453
v-42.4531q0 -8.83211 -6.25065 -15.0826q-6.25065 -6.25045 -15.0824 -6.25045q-8.86649 0 -15.083 6.25q-6.25098 6.21749 -6.25098 15.0615v42.9229q0 8.73616 6.18143 14.9174q6.18143 6.18124 14.9172 6.18124q8.97141 0 15.2539 -6.31445
q6.31445 -6.2825 6.31445 -15.2324z" />
    <glyph glyph-name="publishing-date" unicode="&#xe263;" 
d="M362.667 394.453v-42.4531q0 -8.83218 -6.25081 -15.0826q-6.25081 -6.25041 -15.0832 -6.25041q-8.86551 0 -15.082 6.25q-6.25098 6.21749 -6.25098 15.0615v42.9229q0 8.73633 6.18115 14.9175t14.9175 6.18115q8.97195 0 15.2529 -6.31445
q6.31543 -6.28196 6.31543 -15.2324zM192 394.453v-42.4531q0 -8.83211 -6.25065 -15.0826q-6.25065 -6.25045 -15.0824 -6.25045q-8.86649 0 -15.083 6.25q-6.25098 6.21749 -6.25098 15.0615v42.9229q0 8.73616 6.18143 14.9174q6.18143 6.18124 14.9172 6.18124
q8.97141 0 15.2539 -6.31445q6.31445 -6.2825 6.31445 -15.2324zM448 32h-321.109q-26.0479 0 -44.4692 18.4214t-18.4214 44.4692v278.442h64v-21.6748q0 -17.5346 12.3945 -29.9307q12.3961 -12.3945 29.9307 -12.3945q17.8334 0 30.4219 12.5869
q12.5859 12.5875 12.5859 30.3789v21.0342h85.334v-21.6748q0 -17.5361 12.3945 -29.9307t29.9307 -12.3945q17.834 0 30.4209 12.5869t12.5869 30.3789v21.0342h64v-341.333zM288 74.667h117.333v192h-298.666v-164.758q0 -11.2515 7.97852 -19.2637
q8.01214 -7.97852 19.2637 -7.97852h90.0908v53.333h-64l96 106.667l96 -106.667h-64v-53.333z" />
    <glyph glyph-name="depicted-date" unicode="&#xe264;" 
d="M448 373.333v-298.666h-320.342q-26.3679 0 -45.0131 18.6451t-18.6451 45.0131v235.008h384zM362.667 288v-21.5469q0 -17.5839 -12.435 -30.0185q-12.435 -12.4346 -30.0191 -12.4346q-17.7863 0 -30.3331 12.5466q-12.5468 12.5466 -12.5468 30.2903v21.1631h-42.666
v-21.5469q0 -17.5839 -12.435 -30.0185q-12.435 -12.4346 -30.0191 -12.4346q-17.7863 0 -30.3331 12.5466q-12.5468 12.5466 -12.5468 30.2903v21.1631h-21.333v-149.333h256v149.333h-21.333zM341.333 309.12q0 8.95198 -6.31445 15.2314
q-6.28196 6.31543 -15.2314 6.31543q-8.75764 0 -14.9389 -6.18143q-6.18124 -6.18143 -6.18124 -14.9172v-42.9229q0 -8.845 6.25 -15.0615q6.21749 -6.25098 15.0615 -6.25098q8.85367 0 15.1041 6.25081q6.25041 6.25081 6.25041 15.0832v42.4531zM213.333 309.12
q0 8.95198 -6.31445 15.2314q-6.28196 6.31543 -15.2314 6.31543q-8.75764 0 -14.9389 -6.18143q-6.18124 -6.18143 -6.18124 -14.9172v-42.9229q0 -8.845 6.25 -15.0615q6.21749 -6.25098 15.0615 -6.25098q8.85367 0 15.1041 6.25081t6.25041 15.0832v42.4531z" />
    <glyph glyph-name="uniE265" unicode="&#xe265;" 
d="M170.667 277.333l64 74.667v-259.051l-64 77.7178h-32.6406q-17.4076 0 -29.717 12.3092t-12.3094 29.7172v64.6396h74.667zM301.907 296.318q28.7188 -30.1142 28.7188 -72.3193q0 -42.2051 -28.7188 -72.3193l-30.373 30.3721q16.4482 17.1327 16.4482 41.9473
q0 24.8136 -16.4482 41.9463zM360.656 355.034q55.3438 -54.3899 55.3438 -131.033t-55.3438 -131.033l-30.1924 30.1299q42.8643 41.7919 42.8643 100.903q0 59.1104 -42.8643 100.902z" />
    <glyph glyph-name="uniE266" unicode="&#xe266;" 
d="M170.667 277.333l64 74.667v-259.051l-64 77.7178h-32.6406q-17.4076 0 -29.717 12.3092t-12.3094 29.7172v64.6396h74.667zM341.333 254.165l45.248 45.2695l30.1865 -30.1865l-45.2686 -45.248l45.2686 -45.248l-30.1865 -30.1865l-45.248 45.2695l-45.248 -45.2695
l-30.1865 30.1865l45.2695 45.248l-45.2695 45.248l30.1865 30.1865z" />
    <glyph glyph-name="uniE267" unicode="&#xe267;" 
d="M416 384v-321.653h-257.12q-26.0427 0 -44.4613 18.416q-18.4186 18.416 -18.4186 44.4668v258.771h320zM149.333 106.667h42.667v96h-42.667v-96zM133.149 256.569l39.666 -15.7188l35.3682 89.2471l-39.666 15.7188zM234.667 106.667h42.666v96h-42.666v-96z
M234.667 245.333h42.666v96h-42.666v-96zM320 106.667h42.667v96h-42.667v-96zM320 245.333h42.667v96h-42.667v-96z" />
    <glyph glyph-name="filesize" unicode="&#xe270;" 
d="M96 298.667h234.667v-234.667h-64v170.667h-170.667v64zM96 384h320v-320h-64v256h-256v64zM245.333 211.68v-149.334h-86.3887q-26.0962 0 -44.5203 18.4241q-18.4241 18.4241 -18.4241 44.5203v86.3896h149.333z" />
    <glyph glyph-name="imagesize" unicode="&#xe271;" 
d="M266.667 320v64h64v-64h-64zM266.667 234.667v64h64v-64h-64zM266.667 148.92v64h64v-64h-64zM266.667 64.4131v64h64v-64h-64zM352 320v64h64v-64h-64zM352 234.667v64h64v-64h-64zM352 148.92v64h64v-64h-64zM352 64.4131v64h64v-64h-64zM96 234.667v149.333h149.333
v-149.333h-149.333zM245.333 211.68v-149.334h-86.3887q-26.0962 0 -44.5203 18.4241q-18.4241 18.4241 -18.4241 44.5203v86.3896h149.333z" />
    <glyph glyph-name="uniE272" unicode="&#xe272;" 
d="M416 384v-321.664h-257.045q-26.0801 0 -44.5176 18.4375t-18.4375 44.5176v258.709h320zM288 138.667v-42.667h96v42.667h-96zM288 202.667v-42.667h96v42.667h-96zM288 266.667v-42.667h96v42.667h-96zM288 330.667v-42.667h96v42.667h-96z" />
    <glyph glyph-name="uniE504" unicode="&#xe504;" 
d="M85.333 326.4h91.0381v-221.834h-91.0381v221.834zM267.454 326.366h91.0137v-221.833h-91.0137v221.833zM199.13 326.4h45.4736v-221.834h-45.4736v221.834zM381.193 326.378h45.4727v-221.834h-45.4844z" />
  </font>
</defs>
</svg>
