<?xml version="1.0" encoding="UTF-8" standalone="no"?>
<!DOCTYPE svg PUBLIC "-//W3C//DTD SVG 1.1//EN" "http://www.w3.org/Graphics/SVG/1.1/DTD/svg11.dtd">
<svg width="100%" height="100%" viewBox="0 0 24 24" version="1.1" xmlns="http://www.w3.org/2000/svg" xmlns:xlink="http://www.w3.org/1999/xlink" xml:space="preserve" xmlns:serif="http://www.serif.com/" style="fill-rule:evenodd;clip-rule:evenodd;stroke-linejoin:round;stroke-miterlimit:2;">
    <g transform="matrix(7.5,0,0,7.53876,-18,-33.1938)">
        <path d="M5,5L3,5L3,6.609C3,6.825 3.176,7 3.393,7C3.976,7 5,7 5,7L5,5Z"/>
    </g>
    <g transform="matrix(0.8,0,0,0.9,2.2,7.6)">
        <rect x="6" y="6" width="2.5" height="5" style="fill:white;"/>
    </g>
    <g transform="matrix(0.743728,0.294734,-0.331576,0.836694,5.42636,-0.498724)">
        <rect x="6" y="6" width="2.5" height="5" style="fill:white;"/>
    </g>
    <g transform="matrix(0.8,0,0,0.9,6.2,7.6)">
        <rect x="6" y="6" width="2.5" height="5" style="fill:white;"/>
    </g>
    <g transform="matrix(0.8,0,0,0.9,6.2,1.1)">
        <rect x="6" y="6" width="2.5" height="5" style="fill:white;"/>
    </g>
    <g transform="matrix(0.8,0,0,0.9,10.2,7.6)">
        <rect x="6" y="6" width="2.5" height="5" style="fill:white;"/>
    </g>
    <g transform="matrix(0.8,0,0,0.9,10.2,1.1)">
        <rect x="6" y="6" width="2.5" height="5" style="fill:white;"/>
    </g>
</svg>
