<?xml version="1.0" encoding="UTF-8" standalone="no"?>
<!DOCTYPE svg PUBLIC "-//W3C//DTD SVG 1.1//EN" "http://www.w3.org/Graphics/SVG/1.1/DTD/svg11.dtd">
<svg width="100%" height="100%" viewBox="0 0 24 24" version="1.1" xmlns="http://www.w3.org/2000/svg" xmlns:xlink="http://www.w3.org/1999/xlink" xml:space="preserve" xmlns:serif="http://www.serif.com/" style="fill-rule:evenodd;clip-rule:evenodd;stroke-linejoin:round;stroke-miterlimit:2;">
    <path d="M21,5L3,5L3,16.005C3,16.8 3.316,17.561 3.877,18.123C4.439,18.684 5.2,19 5.995,19C11.114,19 21,19 21,19L21,5ZM15.888,10.888C15.888,8.72 14.165,7 12,7C9.835,7 8.112,8.723 8.112,10.888C8.112,11.667 8.333,12.333 8.723,12.944L12,17L15.277,12.944C15.667,12.333 15.888,11.667 15.888,10.888ZM12,13.112C10.779,13.112 9.779,12.112 9.779,10.891C9.779,9.669 10.779,8.667 12,8.667C13.221,8.667 14.221,9.667 14.221,10.888C14.221,12.109 13.221,13.112 12,13.112Z"/>
</svg>
