<?xml version="1.0" encoding="UTF-8" standalone="no"?>
<!DOCTYPE svg PUBLIC "-//W3C//DTD SVG 1.1//EN" "http://www.w3.org/Graphics/SVG/1.1/DTD/svg11.dtd">
<svg width="100%" height="100%" viewBox="0 0 24 24" version="1.1" xmlns="http://www.w3.org/2000/svg" xmlns:xlink="http://www.w3.org/1999/xlink" xml:space="preserve" xmlns:serif="http://www.serif.com/" style="fill-rule:evenodd;clip-rule:evenodd;stroke-linejoin:round;stroke-miterlimit:2;">
    <path d="M21,5L3,5L3,16.016C3,17.664 4.336,19 5.984,19C11.1,19 21,19 21,19L21,5ZM17,9L17,10.01C17,11.109 16.109,12 15.01,12C15.009,12 15.009,12 15.008,12C13.899,12 13,11.101 13,9.992L13,9L11,9L11,10.01C11,11.109 10.109,12 9.01,12C9.009,12 9.009,12 9.008,12C7.899,12 7,11.101 7,9.992L7,9L6,9L6,16L18,16L18,9L17,9ZM16,8.01C16,7.742 15.894,7.485 15.704,7.296C15.515,7.106 15.258,7 14.99,7C14.99,7 14.989,7 14.989,7C14.443,7 14,7.443 14,7.989L14,10.001C14,10.266 14.105,10.52 14.293,10.707C14.48,10.895 14.734,11 14.999,11C14.999,11 15,11 15,11C15.552,11 16,10.552 16,10C16,9.393 16,8.619 16,8.01ZM10,8.01C10,7.742 9.894,7.485 9.704,7.296C9.515,7.106 9.258,7 8.99,7C8.99,7 8.989,7 8.989,7C8.443,7 8,7.443 8,7.989L8,10.001C8,10.266 8.105,10.52 8.293,10.707C8.48,10.895 8.734,11 8.999,11C8.999,11 9,11 9,11C9.552,11 10,10.552 10,10C10,9.393 10,8.619 10,8.01Z"/>
</svg>
