<?xml version="1.0" encoding="UTF-8" standalone="no"?>
<!DOCTYPE svg PUBLIC "-//W3C//DTD SVG 1.1//EN" "http://www.w3.org/Graphics/SVG/1.1/DTD/svg11.dtd">
<svg width="100%" height="100%" viewBox="0 0 24 24" version="1.1" xmlns="http://www.w3.org/2000/svg" xmlns:xlink="http://www.w3.org/1999/xlink" xml:space="preserve" xmlns:serif="http://www.serif.com/" style="fill-rule:evenodd;clip-rule:evenodd;stroke-linejoin:round;stroke-miterlimit:2;">
    <path d="M19.5,4.5L4.5,4.5L4.5,16.627C4.5,18.257 5.821,19.578 7.451,19.578C11.82,19.578 19.5,19.578 19.5,19.578L19.5,4.5ZM13.5,16L13.5,18L18,18L18,16L13.5,16ZM13.5,13L13.5,15L18,15L18,13L13.5,13ZM13.5,10L13.5,12L18,12L18,10L13.5,10ZM13.5,7L13.5,9L18,9L18,7L13.5,7Z"/>
</svg>
