<?xml version="1.0" encoding="UTF-8" standalone="no"?>
<!DOCTYPE svg PUBLIC "-//W3C//DTD SVG 1.1//EN" "http://www.w3.org/Graphics/SVG/1.1/DTD/svg11.dtd">
<svg width="100%" height="100%" viewBox="0 0 48 48" version="1.1" xmlns="http://www.w3.org/2000/svg" xmlns:xlink="http://www.w3.org/1999/xlink" xml:space="preserve" xmlns:serif="http://www.serif.com/" style="fill-rule:evenodd;clip-rule:evenodd;stroke-linejoin:round;stroke-miterlimit:2;">
    <g transform="matrix(2,0,0,2,0,0)">
        <path d="M4,13C4,8.516 7.516,5 12,5C16.422,5 20,8.578 20,13C20,17.422 16.422,21 12,21C6.992,21 4,16.991 4,13ZM8.886,8.903L8.883,8.908C9.993,9.836 11.31,11.19 12.5,12.75C14.328,15.147 15.482,17.331 16.106,18.668C17.859,17.396 19,15.33 19,13C19,12.023 18.848,11.34 18.548,10.627C18.306,10.274 17.741,9.784 17.408,9.612C15.957,8.867 14.101,8.497 11.939,8.527C10.865,8.543 9.842,8.673 8.909,8.897L8.886,8.903ZM8.88,8.904C7.516,9.235 6.346,9.76 5.494,10.413C5.175,11.214 5,12.087 5,13C5,14.926 5.78,16.672 7.041,17.938C6.596,16.209 6.794,13.815 7.69,11.385C8.023,10.483 8.429,9.651 8.883,8.908L8.88,8.904ZM8.908,8.868C9.672,7.629 10.567,6.646 11.482,6.019C9.987,6.128 8.588,6.815 7.5,7.718C7.873,8.026 8.375,8.347 8.873,8.897L8.89,8.897L8.908,8.868Z"/>
    </g>
</svg>
