<?xml version="1.0" encoding="UTF-8" standalone="no"?>
<!DOCTYPE svg PUBLIC "-//W3C//DTD SVG 1.1//EN" "http://www.w3.org/Graphics/SVG/1.1/DTD/svg11.dtd">
<svg width="100%" height="100%" viewBox="0 0 48 48" version="1.1" xmlns="http://www.w3.org/2000/svg" xmlns:xlink="http://www.w3.org/1999/xlink" xml:space="preserve" xmlns:serif="http://www.serif.com/" style="fill-rule:evenodd;clip-rule:evenodd;stroke-linejoin:round;stroke-miterlimit:2;">
    <g transform="matrix(2,0,0,2,0,0)">
        <path d="M4.003,13.028C4.003,13.028 4,12.904 4.001,12.857C4.051,10.015 5.587,7.532 7.864,6.185C9.071,5.421 10.487,5 12,5C13.513,5 14.929,5.421 16.133,6.183C18.452,7.555 20,10.098 20,13L19.997,13.028C19.97,16.043 18.308,18.647 15.828,19.981L15.815,19.989C14.709,20.642 13.396,21 12,21C10.598,21 9.281,20.639 8.139,19.963C5.692,18.647 4.03,16.043 4.003,13.028ZM18.997,13.028L16.997,13.028C16.967,14.919 15.928,16.539 14.379,17.37L15.345,19.111C17.511,17.947 18.965,15.672 18.997,13.028ZM5.003,13.028C5.035,15.672 6.489,17.947 8.637,19.101L9.633,17.376C9.716,17.424 9.716,17.424 9.633,17.376C8.093,16.571 7.033,14.938 7.003,13.028L5.003,13.028ZM8.003,13.028C8.003,15.063 9.965,17 12,17C14.035,17 15.997,15.063 15.997,13.028C15.997,13.028 16,13.028 16,13C16,11.009 14.183,9 12,9C9.776,9 8.003,10.803 8.003,13.028ZM15.62,7.037C14.563,6.369 13.324,6 12,6C10.676,6 9.437,6.369 8.377,7.039L9.402,8.747C10.169,8.263 11.054,8 12,8C12.946,8 13.831,8.263 14.594,8.746L15.62,7.037Z"/>
    </g>
</svg>
