<?xml version="1.0" encoding="UTF-8" standalone="no"?>
<!DOCTYPE svg PUBLIC "-//W3C//DTD SVG 1.1//EN" "http://www.w3.org/Graphics/SVG/1.1/DTD/svg11.dtd">
<svg width="100%" height="100%" viewBox="0 0 48 48" version="1.1" xmlns="http://www.w3.org/2000/svg" xmlns:xlink="http://www.w3.org/1999/xlink" xml:space="preserve" xmlns:serif="http://www.serif.com/" style="fill-rule:evenodd;clip-rule:evenodd;stroke-linejoin:round;stroke-miterlimit:2;">
    <g transform="matrix(2,0,0,2,0,0)">
        <path d="M11,7L11,13L5,13L5,7L11,7ZM10,8L6,8L6,12L10,12L10,8Z"/>
        <rect x="7.1" y="9.059" width="1.982" height="1.982"/>
        <g transform="matrix(0.951288,0,0,0.972269,0.581399,0.136795)">
            <rect x="12.003" y="7.059" width="1.051" height="1.029"/>
        </g>
        <g transform="matrix(0.951288,0,0,0.972269,0.581399,2.1368)">
            <rect x="12.003" y="7.059" width="1.051" height="1.029"/>
        </g>
        <g transform="matrix(0.951288,0,0,0.972269,1.5814,1.1368)">
            <rect x="12.003" y="7.059" width="1.051" height="1.029"/>
        </g>
        <g transform="matrix(0.951288,0,0,0.972269,1.5814,4.1368)">
            <rect x="12.003" y="7.059" width="1.051" height="1.029"/>
        </g>
        <g transform="matrix(0.951288,0,0,0.972269,2.5814,3.1368)">
            <rect x="12.003" y="7.059" width="1.051" height="1.029"/>
        </g>
        <g transform="matrix(0.951288,0,0,0.972269,2.5814,2.1368)">
            <rect x="12.003" y="7.059" width="1.051" height="1.029"/>
        </g>
        <g transform="matrix(0.951288,0,0,0.972269,4.5814,3.1368)">
            <rect x="12.003" y="7.059" width="1.051" height="1.029"/>
        </g>
        <g transform="matrix(0.951288,0,0,0.972269,4.5814,1.1368)">
            <rect x="12.003" y="7.059" width="1.051" height="1.029"/>
        </g>
        <g transform="matrix(0.951288,0,0,0.972269,3.5814,1.1368)">
            <rect x="12.003" y="7.059" width="1.051" height="1.029"/>
        </g>
        <g transform="matrix(0.951288,0,0,0.972269,4.5814,0.136795)">
            <rect x="12.003" y="7.059" width="1.051" height="1.029"/>
        </g>
        <g transform="matrix(0.951288,0,0,0.972269,1.5814,0.136795)">
            <rect x="12.003" y="7.059" width="1.051" height="1.029"/>
        </g>
        <g transform="matrix(0.951288,0,0,0.972269,5.5814,2.1368)">
            <rect x="12.003" y="7.059" width="1.051" height="1.029"/>
        </g>
        <g transform="matrix(0.951288,0,0,0.972269,3.5814,4.1368)">
            <rect x="12.003" y="7.059" width="1.051" height="1.029"/>
        </g>
        <g transform="matrix(0.951288,0,0,0.972269,3.5814,5.1368)">
            <rect x="12.003" y="7.059" width="1.051" height="1.029"/>
        </g>
        <g transform="matrix(0.951288,0,0,0.972269,2.5814,5.1368)">
            <rect x="12.003" y="7.059" width="1.051" height="1.029"/>
        </g>
        <g transform="matrix(0.951288,0,0,0.972269,2.5814,6.1368)">
            <rect x="12.003" y="7.059" width="1.051" height="1.029"/>
        </g>
        <g transform="matrix(0.951288,0,0,0.972269,2.5814,8.1368)">
            <rect x="12.003" y="7.059" width="1.051" height="1.029"/>
        </g>
        <g transform="matrix(0.951288,0,0,0.972269,-0.418601,9.1368)">
            <rect x="12.003" y="7.059" width="1.051" height="1.029"/>
        </g>
        <g transform="matrix(0.951288,0,0,0.972269,-0.418601,8.13411)">
            <rect x="12.003" y="7.059" width="1.051" height="1.029"/>
        </g>
        <g transform="matrix(0.951288,0,0,0.972269,-1.4186,9.13411)">
            <rect x="12.003" y="7.059" width="1.051" height="1.029"/>
        </g>
        <g transform="matrix(0.951288,0,0,0.972269,0.581399,9.1368)">
            <rect x="12.003" y="7.059" width="1.051" height="1.029"/>
        </g>
        <g transform="matrix(0.951288,0,0,0.972269,3.5814,9.1368)">
            <rect x="12.003" y="7.059" width="1.051" height="1.029"/>
        </g>
        <g transform="matrix(0.951288,0,0,0.972269,5.5814,8.1368)">
            <rect x="12.003" y="7.059" width="1.051" height="1.029"/>
        </g>
        <g transform="matrix(0.951288,0,0,0.972269,4.5814,8.1368)">
            <rect x="12.003" y="7.059" width="1.051" height="1.029"/>
        </g>
        <g transform="matrix(0.951288,0,0,0.972269,5.5814,6.1368)">
            <rect x="12.003" y="7.059" width="1.051" height="1.029"/>
        </g>
        <g transform="matrix(0.951288,0,0,0.972269,4.5814,5.1368)">
            <rect x="12.003" y="7.059" width="1.051" height="1.029"/>
        </g>
        <g transform="matrix(0.951288,0,0,0.972269,6.5814,5.1368)">
            <rect x="12.003" y="7.059" width="1.051" height="1.029"/>
        </g>
        <g transform="matrix(0.951288,0,0,0.972269,6.5814,4.1368)">
            <rect x="12.003" y="7.059" width="1.051" height="1.029"/>
        </g>
        <g transform="matrix(0.951288,0,0,0.972269,5.5814,4.1368)">
            <rect x="12.003" y="7.059" width="1.051" height="1.029"/>
        </g>
        <g transform="matrix(0.951288,0,0,0.972269,6.5814,1.1368)">
            <rect x="12.003" y="7.059" width="1.051" height="1.029"/>
        </g>
        <g transform="matrix(0.951288,0,0,0.972269,4.5814,6.1368)">
            <rect x="12.003" y="7.059" width="1.051" height="1.029"/>
        </g>
        <g transform="matrix(0.951288,0,0,0.972269,6.5814,9.1368)">
            <rect x="12.003" y="7.059" width="1.051" height="1.029"/>
        </g>
        <g transform="matrix(0.951288,0,0,0.972269,1.5814,7.1368)">
            <rect x="12.003" y="7.059" width="1.051" height="1.029"/>
        </g>
        <g transform="matrix(0.951288,0,0,0.972269,0.581399,6.1368)">
            <rect x="12.003" y="7.059" width="1.051" height="1.029"/>
        </g>
        <g transform="matrix(0.951288,0,0,0.972269,0.587464,5.1368)">
            <rect x="12.003" y="7.059" width="1.051" height="1.029"/>
        </g>
        <g transform="matrix(0.951288,0,0,0.972269,0.587464,7.13411)">
            <rect x="12.003" y="7.059" width="1.051" height="1.029"/>
        </g>
        <g transform="matrix(0.951288,0,0,0.972269,-6.4186,7.13411)">
            <rect x="12.003" y="7.059" width="1.051" height="1.029"/>
        </g>
        <g transform="matrix(0.951288,0,0,0.972269,-5.4186,8.13411)">
            <rect x="12.003" y="7.059" width="1.051" height="1.029"/>
        </g>
        <g transform="matrix(0.951288,0,0,0.972269,-5.4186,9.13411)">
            <rect x="12.003" y="7.059" width="1.051" height="1.029"/>
        </g>
        <g transform="matrix(0.951288,0,0,0.972269,-3.4186,9.13411)">
            <rect x="12.003" y="7.059" width="1.051" height="1.029"/>
        </g>
        <g transform="matrix(0.951288,0,0,0.972269,-4.4186,8.13411)">
            <rect x="12.003" y="7.059" width="1.051" height="1.029"/>
        </g>
        <g transform="matrix(0.951288,0,0,0.972269,-3.4186,7.13411)">
            <rect x="12.003" y="7.059" width="1.051" height="1.029"/>
        </g>
        <g transform="matrix(0.951288,0,0,0.972269,-2.4186,7.1368)">
            <rect x="12.003" y="7.059" width="1.051" height="1.029"/>
        </g>
        <g transform="matrix(0.951288,0,0,0.972269,-1.4186,7.1368)">
            <rect x="12.003" y="7.059" width="1.051" height="1.029"/>
        </g>
        <g transform="matrix(0.951288,0,0,0.972269,-1.4186,8.1368)">
            <rect x="12.003" y="7.059" width="1.051" height="1.029"/>
        </g>
    </g>
</svg>
