<?xml version="1.0" encoding="UTF-8" standalone="no"?>
<!DOCTYPE svg PUBLIC "-//W3C//DTD SVG 1.1//EN" "http://www.w3.org/Graphics/SVG/1.1/DTD/svg11.dtd">
<svg width="100%" height="100%" viewBox="0 0 24 24" version="1.1" xmlns="http://www.w3.org/2000/svg" xmlns:xlink="http://www.w3.org/1999/xlink" xml:space="preserve" xmlns:serif="http://www.serif.com/" style="fill-rule:evenodd;clip-rule:evenodd;stroke-linejoin:round;stroke-miterlimit:2;">
    <g transform="matrix(1.5,0,0,1.5,8,-3)">
        <rect x="3" y="5" width="2" height="2"/>
    </g>
    <g transform="matrix(1.5,0,0,1.5,8,1)">
        <rect x="3" y="5" width="2" height="2"/>
    </g>
    <g transform="matrix(1.5,0,0,1.5,8,5.01938)">
        <rect x="3" y="5" width="2" height="2"/>
    </g>
    <g transform="matrix(1.5,0,0,1.5,8,8.98062)">
        <rect x="3" y="5" width="2" height="2"/>
    </g>
    <g transform="matrix(1.5,0,0,1.5,12,-3)">
        <rect x="3" y="5" width="2" height="2"/>
    </g>
    <g transform="matrix(1.5,0,0,1.5,12,1)">
        <rect x="3" y="5" width="2" height="2"/>
    </g>
    <g transform="matrix(1.5,0,0,1.5,12,5.01938)">
        <rect x="3" y="5" width="2" height="2"/>
    </g>
    <g transform="matrix(1.5,0,0,1.5,12,8.98062)">
        <rect x="3" y="5" width="2" height="2"/>
    </g>
    <g transform="matrix(3.5,0,0,3.5,-6,-13)">
        <rect x="3" y="5" width="2" height="2"/>
    </g>
    <g transform="matrix(3.5,0,0,3.5,-6,-4.92247)">
        <path d="M5,5L3,5L3,6.157C3,6.623 3.377,7 3.843,7L5,7L5,5Z"/>
    </g>
</svg>
