<?xml version="1.0" encoding="UTF-8" standalone="no"?>
<!DOCTYPE svg PUBLIC "-//W3C//DTD SVG 1.1//EN" "http://www.w3.org/Graphics/SVG/1.1/DTD/svg11.dtd">
<svg width="100%" height="100%" viewBox="0 0 24 24" version="1.1" xmlns="http://www.w3.org/2000/svg" xmlns:xlink="http://www.w3.org/1999/xlink" xml:space="preserve" xmlns:serif="http://www.serif.com/" style="fill-rule:evenodd;clip-rule:evenodd;stroke-linejoin:round;stroke-miterlimit:2;">
    <path d="M18,5L21,5L21,21L5.948,21C4.32,21 3,19.68 3,18.052L3,5L6,5L6,6.016C6,6.542 6.209,7.047 6.581,7.419C6.953,7.791 7.458,8 7.984,8C7.985,8 7.985,8 7.986,8C8.52,8 9.032,7.788 9.41,7.41C9.788,7.032 10,6.52 10,5.986L10,5L14,5L14,6.016C14,6.542 14.209,7.047 14.581,7.419C14.953,7.791 15.458,8 15.984,8C15.985,8 15.985,8 15.986,8C16.52,8 17.032,7.788 17.41,7.41C17.788,7.032 18,6.52 18,5.986L18,5ZM19,10L5,10L5,17.723C5,18.062 5.135,18.386 5.374,18.626C5.614,18.865 5.938,19 6.277,19C9.731,19 19,19 19,19L19,10Z"/>
    <g transform="matrix(1,0,0,1,8,1)">
        <path d="M9,3.01C9,2.742 8.894,2.485 8.704,2.296C8.515,2.106 8.258,2 7.99,2C7.99,2 7.989,2 7.989,2C7.443,2 7,2.443 7,2.989L7,5.001C7,5.266 7.105,5.52 7.293,5.707C7.48,5.895 7.734,6 7.999,6C7.999,6 8,6 8,6C8.552,6 9,5.552 9,5C9,4.393 9,3.619 9,3.01Z"/>
    </g>
    <g transform="matrix(1,0,0,1,-1.15499e-11,1)">
        <path d="M9,3.01C9,2.742 8.894,2.485 8.704,2.296C8.515,2.106 8.258,2 7.99,2C7.99,2 7.989,2 7.989,2C7.443,2 7,2.443 7,2.989L7,5.001C7,5.266 7.105,5.52 7.293,5.707C7.48,5.895 7.734,6 7.999,6C7.999,6 8,6 8,6C8.552,6 9,5.552 9,5C9,4.393 9,3.619 9,3.01Z"/>
    </g>
</svg>
