<?xml version="1.0" encoding="UTF-8" standalone="no"?>
<!DOCTYPE svg PUBLIC "-//W3C//DTD SVG 1.1//EN" "http://www.w3.org/Graphics/SVG/1.1/DTD/svg11.dtd">
<svg width="100%" height="100%" viewBox="0 0 48 48" version="1.1" xmlns="http://www.w3.org/2000/svg" xmlns:xlink="http://www.w3.org/1999/xlink" xml:space="preserve" xmlns:serif="http://www.serif.com/" style="fill-rule:evenodd;clip-rule:evenodd;stroke-linejoin:round;stroke-miterlimit:2;">
    <g transform="matrix(2,0,0,2,0,0)">
        <path d="M9.5,5L14.5,5L14.5,6.01C14.5,6.405 14.657,6.784 14.936,7.064C15.216,7.343 15.595,7.5 15.99,7.5C15.995,7.5 16,7.5 16.005,7.5C16.402,7.5 16.782,7.343 17.062,7.062C17.343,6.782 17.5,6.402 17.5,6.005L17.5,5L20,5L20,20C20,20 11.63,20 6.998,20C5.342,20 4,18.658 4,17.002L4,5L6.5,5L6.5,6.01C6.5,6.405 6.657,6.784 6.936,7.064C7.216,7.343 7.595,7.5 7.99,7.5C7.995,7.5 8,7.5 8.005,7.5C8.402,7.5 8.782,7.343 9.062,7.062C9.343,6.782 9.5,6.402 9.5,6.005L9.5,5ZM19,9L5,9L5,17.031C5,18.118 5.882,19 6.969,19C10.826,19 19,19 19,19L19,9Z"/>
        <g transform="matrix(1,0,0,1,8,1)">
            <path d="M9,3.01C9,2.742 8.894,2.485 8.704,2.296C8.515,2.106 8.258,2 7.99,2C7.99,2 7.989,2 7.989,2C7.443,2 7,2.443 7,2.989L7,5.001C7,5.266 7.105,5.52 7.293,5.707C7.48,5.895 7.734,6 7.999,6C7.999,6 8,6 8,6C8.552,6 9,5.552 9,5C9,4.393 9,3.619 9,3.01Z"/>
        </g>
        <g transform="matrix(1,0,0,1,-1.15499e-11,1)">
            <path d="M9,3.01C9,2.742 8.894,2.485 8.704,2.296C8.515,2.106 8.258,2 7.99,2C7.99,2 7.989,2 7.989,2C7.443,2 7,2.443 7,2.989L7,5.001C7,5.266 7.105,5.52 7.293,5.707C7.48,5.895 7.734,6 7.999,6C7.999,6 8,6 8,6C8.552,6 9,5.552 9,5C9,4.393 9,3.619 9,3.01Z"/>
        </g>
        <g transform="matrix(0.5,0,0,0.5,6,7.5)">
            <path d="M20,14.5L20,11.6L18.2,11.3C18.1,10.9 17.9,10.5 17.6,9.9L18.7,8.4L16.6,6.3L15.1,7.4C14.6,7.1 14.1,6.9 13.7,6.8L13.5,5L10.6,5L10.3,6.8C9.8,6.9 9.4,7.1 8.9,7.4L7.4,6.3L5.3,8.4L6.3,9.9C6,10.4 5.9,10.8 5.7,11.3L4,11.5L4,14.4L5.8,14.7C5.9,15.2 6.1,15.6 6.4,16.1L5.4,17.6L7.5,19.7L9,18.7C9.4,18.9 9.9,19.1 10.4,19.3L10.7,21.1L13.7,21.1L14,19.3C14.5,19.2 14.9,19 15.4,18.7L16.9,19.8L19,17.7L17.9,16.2C18.2,15.7 18.4,15.2 18.5,14.8L20,14.5ZM12,16C10.3,16 9,14.7 9,13C9,11.3 10.3,10 12,10C13.7,10 15,11.3 15,13C15,14.7 13.7,16 12,16Z" style="fill-rule:nonzero;"/>
        </g>
    </g>
</svg>
