<?xml version="1.0" encoding="UTF-8" standalone="no"?>
<!DOCTYPE svg PUBLIC "-//W3C//DTD SVG 1.1//EN" "http://www.w3.org/Graphics/SVG/1.1/DTD/svg11.dtd">
<svg width="100%" height="100%" viewBox="0 0 48 48" version="1.1" xmlns="http://www.w3.org/2000/svg" xmlns:xlink="http://www.w3.org/1999/xlink" xml:space="preserve" xmlns:serif="http://www.serif.com/" style="fill-rule:evenodd;clip-rule:evenodd;stroke-linejoin:round;stroke-miterlimit:2;">
    <g transform="matrix(2,0,0,2,0,0)">
        <path d="M6.5,11.5L17,10L12,18L9.5,15.045L14.5,11.5L8.615,14L6.5,11.5Z"/>
        <path d="M9.5,5L14.5,5L14.5,6.004C14.5,6.83 15.17,7.5 15.996,7.5C15.997,7.5 15.997,7.5 15.998,7.5C16.396,7.5 16.778,7.342 17.06,7.06C17.342,6.778 17.5,6.396 17.5,5.998L17.5,5L21,5L21,20C21,20 11.085,20 5.973,20C4.331,20 3,18.669 3,17.027L3,5L6.5,5L6.5,6.004C6.5,6.83 7.17,7.5 7.996,7.5C7.997,7.5 7.997,7.5 7.998,7.5C8.396,7.5 8.778,7.342 9.06,7.06C9.342,6.778 9.5,6.396 9.5,5.998L9.5,5ZM20,9L4,9L4,16.986C4,17.52 4.212,18.032 4.59,18.41C4.968,18.788 5.48,19 6.014,19C10.313,19 20,19 20,19L20,9Z"/>
        <g transform="matrix(1,0,0,1,8,1)">
            <path d="M9,3.01C9,2.742 8.894,2.485 8.704,2.296C8.515,2.106 8.258,2 7.99,2C7.99,2 7.989,2 7.989,2C7.443,2 7,2.443 7,2.989L7,5.001C7,5.266 7.105,5.52 7.293,5.707C7.48,5.895 7.734,6 7.999,6C7.999,6 8,6 8,6C8.552,6 9,5.552 9,5C9,4.393 9,3.619 9,3.01Z"/>
        </g>
        <g transform="matrix(1,0,0,1,-1.15499e-11,1)">
            <path d="M9,3.01C9,2.742 8.894,2.485 8.704,2.296C8.515,2.106 8.258,2 7.99,2C7.99,2 7.989,2 7.989,2C7.443,2 7,2.443 7,2.989L7,5.001C7,5.266 7.105,5.52 7.293,5.707C7.48,5.895 7.734,6 7.999,6C7.999,6 8,6 8,6C8.552,6 9,5.552 9,5C9,4.393 9,3.619 9,3.01Z"/>
        </g>
    </g>
</svg>
