<?xml version="1.0" encoding="UTF-8" standalone="no"?>
<!DOCTYPE svg PUBLIC "-//W3C//DTD SVG 1.1//EN" "http://www.w3.org/Graphics/SVG/1.1/DTD/svg11.dtd">
<svg width="100%" height="100%" viewBox="0 0 48 48" version="1.1" xmlns="http://www.w3.org/2000/svg" xmlns:xlink="http://www.w3.org/1999/xlink" xml:space="preserve" xmlns:serif="http://www.serif.com/" style="fill-rule:evenodd;clip-rule:evenodd;stroke-linejoin:round;stroke-miterlimit:2;">
    <g transform="matrix(2,0,0,2,0,0)">
        <g transform="matrix(1,0,0,1,-0.0907111,-0.273761)">
            <g>
                <g transform="matrix(1,0,0,1,-3.89041,1.80135)">
                    <path d="M10,13C10,14.7 11.3,16 13,16L13,9L16,9L11.5,4L7,9L10,9L10,13Z" style="fill-rule:nonzero;"/>
                </g>
                <g transform="matrix(-1,-1.22465e-16,1.22465e-16,-1,28.0718,22.7462)">
                    <path d="M10,13C10,14.7 11.3,16 13,16L13,9L16,9L11.5,4L7,9L10,9L10,13Z" style="fill-rule:nonzero;"/>
                </g>
            </g>
        </g>
    </g>
</svg>
