<?xml version="1.0" encoding="UTF-8" standalone="no"?>
<!DOCTYPE svg PUBLIC "-//W3C//DTD SVG 1.1//EN" "http://www.w3.org/Graphics/SVG/1.1/DTD/svg11.dtd">
<svg width="100%" height="100%" viewBox="0 0 24 24" version="1.1" xmlns="http://www.w3.org/2000/svg" xmlns:xlink="http://www.w3.org/1999/xlink" xml:space="preserve" xmlns:serif="http://www.serif.com/" style="fill-rule:evenodd;clip-rule:evenodd;stroke-linejoin:round;stroke-miterlimit:2;">
    <g transform="matrix(0.727273,0,0,0.742802,-0.272727,3.05759)">
        <path d="M10,8L4.5,8L4.5,13.383C4.5,14.871 5.732,16.078 7.252,16.078C8.626,16.078 10,16.078 10,16.078L10,8Z"/>
    </g>
    <g transform="matrix(1.33333,0,0,1.39765,-1.90832,-4.0644)">
        <path d="M6.681,9.347L9.681,6.485L9.681,16.502L6.681,13.64L6.681,9.347Z"/>
        <path d="M6.681,9.347L9.681,6.485L9.681,16.502L6.681,13.64L6.681,9.347ZM7.431,9.644L8.931,8.213C8.931,8.213 8.931,14.775 8.931,14.775C8.931,14.775 7.431,13.344 7.431,13.344L7.431,9.644Z"/>
    </g>
    <g transform="matrix(1.42546,0,0,0.996217,-1.28692,0.0453216)">
        <path d="M13.898,5.102C14.994,6.967 15.635,9.377 15.635,12C15.635,14.616 14.998,17.02 13.907,18.881L12.757,17.736C13.686,16.198 14.232,14.189 14.232,12C14.232,9.804 13.683,7.79 12.749,6.251L13.898,5.102Z"/>
    </g>
    <g transform="matrix(1.42546,0,0,0.996217,-1.28692,0.0453216)">
        <path d="M11.027,7.973C11.715,9.028 12.127,10.445 12.127,12C12.127,13.55 11.717,14.964 11.033,16.017L9.875,14.864C10.401,14.141 10.724,13.124 10.724,12C10.724,10.872 10.399,9.853 9.87,9.13L11.027,7.973Z"/>
    </g>
</svg>
