<?xml version="1.0" encoding="UTF-8" standalone="no"?>
<!DOCTYPE svg PUBLIC "-//W3C//DTD SVG 1.1//EN" "http://www.w3.org/Graphics/SVG/1.1/DTD/svg11.dtd">
<svg width="100%" height="100%" viewBox="0 0 24 24" version="1.1" xmlns="http://www.w3.org/2000/svg" xmlns:xlink="http://www.w3.org/1999/xlink" xml:space="preserve" xmlns:serif="http://www.serif.com/" style="fill-rule:evenodd;clip-rule:evenodd;stroke-linejoin:round;stroke-miterlimit:2;">
    <g transform="matrix(0.636364,0,0,0.619001,1.63636,4.54799)">
        <path d="M10,8L4.5,8L4.5,12.895C4.5,14.652 5.886,16.078 7.596,16.078C8.847,16.078 10,16.078 10,16.078L10,8Z"/>
    </g>
    <g transform="matrix(1,0,0,1.2,1.31876,-1.78256)">
        <path d="M6.681,9.402L9.681,6.485L9.681,16.604L6.681,13.569L6.681,9.402Z"/>
        <path d="M6.681,9.402L9.681,6.485L9.681,16.604L6.681,13.569L6.681,9.402ZM7.681,9.71L8.681,8.738C8.681,8.738 8.681,14.282 8.681,14.282C8.681,14.282 7.681,13.27 7.681,13.27L7.681,9.71Z"/>
    </g>
    <g transform="matrix(4.07938,0,0,4.07938,-25.9525,-36.9525)">
        <path d="M9.831,11.169C10.037,11.385 10.161,11.678 10.161,12C10.161,12.322 10.037,12.615 9.831,12.831L9.482,12.482C9.602,12.357 9.671,12.186 9.671,12C9.671,11.814 9.602,11.643 9.482,11.518L9.831,11.169Z"/>
    </g>
    <g transform="matrix(2.25,0,0,2.18973,-23.25,-14.2768)">
        <path d="M17.847,9.195C18.56,9.915 19,10.907 19,12C19,13.093 18.56,14.085 17.847,14.805L17.218,14.16C17.771,13.606 18.111,12.843 18.111,12C18.111,11.157 17.771,10.394 17.218,9.84L17.847,9.195Z"/>
    </g>
</svg>
