<?xml version="1.0" encoding="UTF-8" standalone="no"?>
<!DOCTYPE svg PUBLIC "-//W3C//DTD SVG 1.1//EN" "http://www.w3.org/Graphics/SVG/1.1/DTD/svg11.dtd">
<svg width="100%" height="100%" viewBox="0 0 24 24" version="1.1" xmlns="http://www.w3.org/2000/svg" xmlns:xlink="http://www.w3.org/1999/xlink" xml:space="preserve" xmlns:serif="http://www.serif.com/" style="fill-rule:evenodd;clip-rule:evenodd;stroke-linejoin:round;stroke-miterlimit:2;">
    <path d="M8,9.5L11,6L11,18.143L8,14.5C8,14.5 6.47,14.5 6.47,14.5C5.382,14.5 4.5,13.618 4.5,12.53L4.5,9.5L8,9.5Z"/>
    <g transform="matrix(4.07938,0,0,4.07938,-25.9525,-36.9525)">
        <path d="M9.831,11.169C10.037,11.385 10.161,11.678 10.161,12C10.161,12.322 10.037,12.615 9.831,12.831L9.482,12.482C9.602,12.357 9.671,12.186 9.671,12C9.671,11.814 9.602,11.643 9.482,11.518L9.831,11.169Z"/>
    </g>
    <g transform="matrix(2.25,0,0,2.18973,-23.25,-14.2768)">
        <path d="M17.847,9.195C18.56,9.915 19,10.907 19,12C19,13.093 18.56,14.085 17.847,14.805L17.218,14.16C17.771,13.606 18.111,12.843 18.111,12C18.111,11.157 17.771,10.394 17.218,9.84L17.847,9.195Z"/>
    </g>
</svg>
