<?xml version="1.0" encoding="UTF-8" standalone="no"?>
<!DOCTYPE svg PUBLIC "-//W3C//DTD SVG 1.1//EN" "http://www.w3.org/Graphics/SVG/1.1/DTD/svg11.dtd">
<svg width="100%" height="100%" viewBox="0 0 24 24" version="1.1" xmlns="http://www.w3.org/2000/svg" xmlns:xlink="http://www.w3.org/1999/xlink" xml:space="preserve" xmlns:serif="http://www.serif.com/" style="fill-rule:evenodd;clip-rule:evenodd;stroke-linejoin:round;stroke-miterlimit:2;">
    <g transform="matrix(1,0,0,0.742802,8.88178e-16,3.05759)">
        <path d="M10,8L4.5,8L4.5,12.652C4.5,14.544 5.639,16.078 7.044,16.078L10,16.078L10,8Z"/>
    </g>
    <g transform="matrix(0.851268,0,0,1,3.88684,0.514533)">
        <path d="M7.181,8.485L10.705,5.485L10.688,17.485L7.181,14.485L7.181,8.485Z"/>
        <path d="M7.181,8.485L10.705,5.485L10.688,17.485L7.181,14.485L7.181,8.485ZM8.356,8.9L9.527,7.903C9.527,7.903 9.517,15.066 9.517,15.066C9.517,15.066 8.356,14.073 8.356,14.073L8.356,8.9Z"/>
    </g>
    <g transform="matrix(1.15789,0,0,1.21637,-0.578947,-2.64912)">
        <path d="M13.56,8.935C14.311,9.772 14.75,10.859 14.75,12.043C14.75,13.213 14.321,14.288 13.587,15.12L12.952,14.568C13.543,13.88 13.886,13 13.886,12.043C13.886,11.071 13.531,10.177 12.922,9.485L13.56,8.935Z"/>
    </g>
    <g transform="matrix(2.25,0,0,2.18973,-23.25,-14.2768)">
        <path d="M18.007,9.389C18.63,10.079 19,10.997 19,12C19,12.998 18.634,13.91 18.016,14.6L17.689,14.293C18.233,13.684 18.556,12.88 18.556,12C18.556,11.114 18.229,10.304 17.678,9.694L18.007,9.389Z"/>
    </g>
</svg>
