<?xml version="1.0" encoding="UTF-8" standalone="no"?>
<!DOCTYPE svg PUBLIC "-//W3C//DTD SVG 1.1//EN" "http://www.w3.org/Graphics/SVG/1.1/DTD/svg11.dtd">
<svg width="100%" height="100%" viewBox="0 0 48 48" version="1.1" xmlns="http://www.w3.org/2000/svg" xmlns:xlink="http://www.w3.org/1999/xlink" xml:space="preserve" xmlns:serif="http://www.serif.com/" style="fill-rule:evenodd;clip-rule:evenodd;stroke-linejoin:round;stroke-miterlimit:2;">
    <g transform="matrix(2,0,0,2,0,0)">
        <g transform="matrix(0.707107,-0.707107,0.707107,0.707107,-4.19239,12.636)">
            <path d="M20,6.78L20,12.229C20,13.881 18.661,15.22 17.009,15.22C12.956,15.22 6.22,15.22 6.22,15.22L2,11L6.22,6.78L20,6.78ZM6,10C6.552,10 7,10.448 7,11C7,11.552 6.552,12 6,12C5.448,12 5,11.552 5,11C5,10.448 5.448,10 6,10Z"/>
        </g>
    </g>
</svg>
