<?xml version="1.0" encoding="UTF-8" standalone="no"?>
<!DOCTYPE svg PUBLIC "-//W3C//DTD SVG 1.1//EN" "http://www.w3.org/Graphics/SVG/1.1/DTD/svg11.dtd">
<svg width="100%" height="100%" viewBox="0 0 48 48" version="1.1" xmlns="http://www.w3.org/2000/svg" xmlns:xlink="http://www.w3.org/1999/xlink" xml:space="preserve" xmlns:serif="http://www.serif.com/" style="fill-rule:evenodd;clip-rule:evenodd;stroke-linejoin:round;stroke-miterlimit:2;">
    <g transform="matrix(2,0,0,2,0,0)">
        <path d="M18,10.48L18,20L8.042,20C6.362,20 5,18.638 5,16.958L5,16.52L8.48,20L18,10.48Z" style="fill:rgb(1,0,0);"/>
        <path d="M18.5,6L8.5,16L3.5,11L2,12.5L8.5,19L21.5,6C20.7,5.2 19.3,5.2 18.5,6Z" style="fill:rgb(1,0,0);fill-rule:nonzero;"/>
        <path d="M5,11.498L5,7L15.017,7C15.453,7 15.867,7.094 16.24,7.262L8.502,15L5,11.498Z" style="fill:rgb(1,0,0);"/>
    </g>
</svg>
